<svg xmlns="http://www.w3.org/2000/svg" xmlns:xlink="http://www.w3.org/1999/xlink" width="742" zoomAndPan="magnify" viewBox="0 0 556.5 179.999997" height="240" preserveAspectRatio="xMidYMid meet" version="1.0"><defs><clipPath id="43cbcab210"><path d="M 15 4 L 125 4 L 125 175 L 15 175 Z M 15 4 " clip-rule="nonzero"/></clipPath><clipPath id="bccfe6eca9"><path d="M 102.25 4.355469 L 123.511719 4.355469 L 123.511719 6.429688 L 124.03125 6.429688 L 124.03125 13.171875 L 124.03125 4.355469 L 123.511719 13.171875 L 123.511719 27.691406 L 124.03125 27.691406 L 124.03125 28.210938 L 123.511719 28.210938 L 123.511719 174.835938 C 123.554688 174.964844 123.511719 175.007812 123.382812 174.964844 L 102.25 174.964844 L 102.25 114.421875 C 102.292969 114.292969 102.25 114.25 102.121094 114.292969 C 101.644531 114.292969 101.34375 114.292969 101.210938 114.292969 L 101.210938 114.808594 L 100.695312 114.808594 L 100.695312 115.847656 L 99.65625 115.847656 L 99.65625 116.367188 L 99.136719 116.367188 L 99.136719 116.882812 L 98.621094 116.882812 L 98.621094 117.402344 L 98.101562 117.402344 L 98.101562 117.921875 L 97.582031 117.921875 L 97.582031 118.441406 L 97.0625 118.441406 L 97.0625 118.957031 L 96.546875 118.957031 L 96.546875 119.476562 L 96.027344 119.476562 L 96.027344 119.996094 L 95.507812 119.996094 L 95.507812 120.515625 L 94.988281 120.515625 L 94.988281 121.03125 L 94.472656 121.03125 L 94.472656 121.550781 L 93.953125 121.550781 L 93.953125 122.070312 L 92.914062 122.070312 L 92.914062 122.589844 L 92.398438 122.589844 L 92.398438 123.105469 L 91.878906 123.105469 L 91.878906 123.625 L 91.359375 123.625 L 91.359375 124.144531 L 90.839844 124.144531 L 90.839844 124.664062 L 90.324219 124.664062 L 90.324219 125.179688 L 89.804688 125.179688 L 89.804688 125.699219 L 89.285156 125.699219 L 89.285156 126.21875 L 88.765625 126.21875 L 88.765625 126.738281 L 88.25 126.738281 L 88.25 127.253906 L 87.730469 127.253906 L 87.730469 127.773438 L 86.691406 127.773438 L 86.691406 128.292969 L 86.175781 128.292969 L 86.175781 128.8125 L 85.65625 128.8125 L 85.65625 129.328125 L 85.136719 129.328125 L 85.136719 129.847656 L 84.617188 129.847656 L 84.617188 130.367188 L 84.101562 130.367188 L 84.101562 130.886719 L 83.582031 130.886719 L 83.582031 131.402344 L 83.0625 131.402344 L 83.0625 131.921875 L 82.542969 131.921875 L 82.542969 132.441406 L 82.027344 132.441406 L 82.027344 132.960938 L 81.507812 132.960938 L 81.507812 133.480469 L 80.988281 133.480469 L 80.988281 133.996094 L 80.46875 133.996094 L 80.46875 134.515625 L 79.953125 134.515625 L 79.953125 135.035156 L 79.433594 135.035156 L 79.433594 135.554688 L 78.914062 135.554688 L 78.914062 136.070312 L 78.394531 136.070312 L 78.394531 136.589844 L 77.359375 136.589844 L 77.359375 137.109375 L 76.839844 137.109375 L 76.839844 137.628906 L 76.320312 137.628906 L 76.320312 138.144531 L 75.804688 138.144531 L 75.804688 138.664062 L 75.285156 138.664062 L 75.285156 139.183594 L 74.765625 139.183594 L 74.765625 139.703125 L 74.246094 139.703125 L 74.246094 140.21875 L 73.730469 140.21875 L 73.730469 140.738281 L 73.210938 140.738281 L 73.210938 141.257812 L 72.691406 141.257812 L 72.691406 141.777344 L 72.171875 141.777344 L 72.171875 142.292969 L 71.65625 142.292969 L 71.65625 142.8125 L 71.136719 142.8125 L 71.136719 143.332031 L 70.617188 143.332031 L 70.617188 143.851562 L 69.582031 143.851562 L 69.582031 144.367188 L 69.0625 144.367188 L 69.0625 144.886719 L 68.542969 144.886719 L 68.542969 145.40625 L 68.023438 145.40625 L 68.023438 145.925781 L 67.507812 145.925781 L 67.507812 146.441406 L 66.988281 146.441406 L 66.988281 146.960938 L 66.46875 146.960938 L 66.46875 147.480469 L 65.949219 147.480469 L 65.949219 148 L 65.433594 148 L 65.433594 148.515625 L 64.914062 148.515625 L 64.914062 149.035156 L 64.394531 149.035156 L 64.394531 149.554688 L 63.875 149.554688 L 63.875 150.074219 L 62.839844 150.074219 L 62.839844 150.589844 L 62.320312 150.589844 L 62.320312 151.109375 L 61.800781 151.109375 L 61.800781 151.628906 L 61.285156 151.628906 L 61.285156 152.148438 L 60.765625 152.148438 L 60.765625 152.664062 L 60.246094 152.664062 L 60.246094 153.183594 L 59.726562 153.183594 L 59.726562 153.703125 L 59.210938 153.703125 L 59.210938 154.222656 L 58.691406 154.222656 L 58.691406 154.738281 L 58.171875 154.738281 L 58.171875 155.257812 L 57.652344 155.257812 L 57.652344 155.777344 L 57.136719 155.777344 L 57.136719 156.296875 L 56.097656 156.296875 L 56.097656 156.8125 L 55.578125 156.8125 L 55.578125 157.332031 L 55.058594 157.332031 L 55.058594 157.851562 L 54.542969 157.851562 L 54.542969 158.371094 L 54.023438 158.371094 L 54.023438 158.886719 L 53.503906 158.886719 L 53.503906 159.40625 L 52.984375 159.40625 L 52.984375 158.886719 L 52.46875 158.886719 L 52.46875 158.371094 L 51.949219 158.371094 L 51.949219 157.851562 L 51.429688 157.851562 L 51.429688 157.332031 L 50.910156 157.332031 L 50.910156 156.8125 L 50.394531 156.8125 L 50.394531 156.296875 L 49.875 156.296875 L 49.875 155.777344 L 49.355469 155.777344 L 49.355469 155.257812 L 48.835938 155.257812 L 48.835938 154.738281 L 48.320312 154.738281 L 48.320312 154.222656 L 47.800781 154.222656 L 47.800781 153.703125 L 47.28125 153.703125 L 47.28125 153.183594 L 46.761719 153.183594 L 46.761719 152.664062 L 46.246094 152.664062 L 46.246094 152.148438 L 45.726562 152.148438 L 45.726562 151.628906 L 45.207031 151.628906 L 45.207031 151.109375 L 44.6875 151.109375 L 44.6875 150.589844 L 44.171875 150.589844 L 44.171875 150.074219 L 43.132812 150.074219 L 43.132812 149.554688 L 42.613281 149.554688 L 42.613281 149.035156 L 42.097656 149.035156 L 42.097656 148.515625 L 41.578125 148.515625 L 41.578125 148 L 41.058594 148 L 41.058594 147.480469 L 40.539062 147.480469 L 40.539062 146.960938 L 40.023438 146.960938 L 40.023438 145.925781 L 40.539062 145.925781 L 40.539062 145.40625 L 41.058594 145.40625 L 41.058594 144.886719 L 41.578125 144.886719 L 41.578125 144.367188 L 42.097656 144.367188 L 42.097656 143.851562 L 42.613281 143.851562 L 42.613281 143.332031 L 43.132812 143.332031 L 43.132812 142.8125 L 44.171875 142.8125 L 44.171875 142.292969 L 44.6875 142.292969 L 44.6875 141.777344 L 45.207031 141.777344 L 45.207031 141.257812 L 45.726562 141.257812 L 45.726562 140.738281 L 46.246094 140.738281 L 46.246094 140.21875 L 46.761719 140.21875 L 46.761719 139.703125 L 47.28125 139.703125 L 47.28125 139.183594 L 47.800781 139.183594 L 47.800781 138.664062 L 48.320312 138.664062 L 48.320312 138.144531 L 48.835938 138.144531 L 48.835938 137.628906 L 49.355469 137.628906 L 49.355469 137.109375 L 49.875 137.109375 L 49.875 136.589844 L 50.910156 136.589844 L 50.910156 136.070312 L 51.429688 136.070312 L 51.429688 135.554688 L 51.949219 135.554688 L 51.949219 135.035156 L 52.46875 135.035156 L 52.46875 134.515625 L 52.984375 134.515625 L 52.984375 133.996094 L 53.503906 133.996094 L 53.503906 133.480469 L 54.023438 133.480469 L 54.023438 132.960938 L 54.542969 132.960938 L 54.542969 132.441406 L 55.058594 132.441406 L 55.058594 131.921875 L 55.578125 131.921875 L 55.578125 131.402344 L 56.097656 131.402344 L 56.097656 130.886719 L 56.617188 130.886719 L 56.617188 130.367188 L 57.652344 130.367188 L 57.652344 129.847656 L 58.171875 129.847656 L 58.171875 129.328125 L 58.691406 129.328125 L 58.691406 128.8125 L 59.210938 128.8125 L 59.210938 128.292969 L 59.726562 128.292969 L 59.726562 127.773438 L 60.246094 127.773438 L 60.246094 127.253906 L 60.765625 127.253906 L 60.765625 126.738281 L 61.285156 126.738281 L 61.285156 126.21875 L 61.800781 126.21875 L 61.800781 125.699219 L 62.320312 125.699219 L 62.320312 125.179688 L 62.839844 125.179688 L 62.839844 124.664062 L 63.359375 124.664062 L 63.359375 124.144531 L 64.394531 124.144531 L 64.394531 123.625 L 64.914062 123.625 L 64.914062 123.105469 L 65.433594 123.105469 L 65.433594 122.589844 L 65.949219 122.589844 L 65.949219 122.070312 L 66.46875 122.070312 L 66.46875 121.550781 L 66.988281 121.550781 L 66.988281 121.03125 L 67.507812 121.03125 L 67.507812 120.515625 L 68.023438 120.515625 L 68.023438 119.996094 L 68.542969 119.996094 L 68.542969 119.476562 L 69.0625 119.476562 L 69.0625 118.957031 L 69.582031 118.957031 L 69.582031 118.441406 L 70.097656 118.441406 L 70.097656 117.921875 L 70.617188 117.921875 L 70.617188 117.402344 L 71.136719 117.402344 L 71.136719 116.882812 L 71.65625 116.882812 L 71.65625 116.367188 L 72.691406 116.367188 L 72.691406 115.847656 L 73.210938 115.847656 L 73.210938 115.328125 L 73.730469 115.328125 L 73.730469 114.808594 L 74.246094 114.808594 L 74.246094 114.292969 L 74.765625 114.292969 L 74.765625 113.773438 L 75.285156 113.773438 L 75.285156 113.253906 L 75.804688 113.253906 L 75.804688 112.734375 L 76.320312 112.734375 L 76.320312 112.21875 L 76.839844 112.21875 L 76.839844 111.699219 L 77.359375 111.699219 L 77.359375 111.179688 L 77.878906 111.179688 L 77.878906 110.660156 L 78.394531 110.660156 L 78.394531 110.144531 L 78.914062 110.144531 L 78.914062 109.625 L 79.433594 109.625 L 79.433594 109.105469 L 79.953125 109.105469 L 79.953125 108.585938 L 80.46875 108.585938 L 80.46875 108.070312 L 81.507812 108.070312 L 81.507812 107.550781 L 82.027344 107.550781 L 82.027344 107.03125 L 82.542969 107.03125 L 82.542969 106.511719 L 83.0625 106.511719 L 83.0625 105.996094 L 83.582031 105.996094 L 83.582031 105.476562 L 84.101562 105.476562 L 84.101562 104.957031 L 84.617188 104.957031 L 84.617188 104.4375 L 85.136719 104.4375 L 85.136719 103.921875 L 85.65625 103.921875 L 85.65625 103.402344 L 86.175781 103.402344 L 86.175781 102.882812 L 86.691406 102.882812 L 86.691406 101.847656 L 16.167969 101.847656 L 16.167969 101.328125 L 15.648438 101.328125 L 15.648438 99.253906 L 16.167969 99.253906 L 16.167969 84.214844 L 15.648438 84.214844 L 15.648438 83.695312 L 16.167969 83.695312 L 16.167969 83.175781 L 87.601562 83.175781 C 87.730469 83.222656 87.773438 83.175781 87.730469 83.046875 C 87.730469 82.574219 87.730469 82.269531 87.730469 82.140625 L 87.210938 82.140625 L 87.210938 81.621094 L 86.691406 81.621094 L 86.691406 81.101562 L 86.175781 81.101562 L 86.175781 80.585938 L 85.65625 80.585938 L 85.65625 80.066406 L 85.136719 80.066406 L 85.136719 79.546875 L 84.617188 79.546875 L 84.617188 79.027344 L 84.101562 79.027344 L 84.101562 78.511719 L 83.582031 78.511719 L 83.582031 77.992188 L 83.0625 77.992188 L 83.0625 77.472656 L 82.027344 77.472656 L 82.027344 76.953125 L 81.507812 76.953125 L 81.507812 76.4375 L 80.988281 76.4375 L 80.988281 75.917969 L 80.46875 75.917969 L 80.46875 75.398438 L 79.953125 75.398438 L 79.953125 74.878906 L 79.433594 74.878906 L 79.433594 74.363281 L 78.914062 74.363281 L 78.914062 73.84375 L 78.394531 73.84375 L 78.394531 73.324219 L 77.878906 73.324219 L 77.878906 72.804688 L 77.359375 72.804688 L 77.359375 72.289062 L 76.839844 72.289062 L 76.839844 71.769531 L 76.320312 71.769531 L 76.320312 71.25 L 75.804688 71.25 L 75.804688 70.730469 L 75.285156 70.730469 L 75.285156 70.214844 L 74.765625 70.214844 L 74.765625 69.695312 L 74.246094 69.695312 L 74.246094 69.175781 L 73.730469 69.175781 L 73.730469 68.65625 L 72.691406 68.65625 L 72.691406 68.140625 L 72.171875 68.140625 L 72.171875 67.621094 L 71.65625 67.621094 L 71.65625 67.101562 L 71.136719 67.101562 L 71.136719 66.582031 L 70.617188 66.582031 L 70.617188 66.066406 L 70.097656 66.066406 L 70.097656 65.546875 L 69.582031 65.546875 L 69.582031 65.027344 L 69.0625 65.027344 L 69.0625 64.507812 L 68.542969 64.507812 L 68.542969 63.992188 L 68.023438 63.992188 L 68.023438 63.472656 L 67.507812 63.472656 L 67.507812 62.953125 L 66.988281 62.953125 L 66.988281 62.433594 L 66.46875 62.433594 L 66.46875 61.917969 L 65.949219 61.917969 L 65.949219 61.398438 L 65.433594 61.398438 L 65.433594 60.878906 L 64.394531 60.878906 L 64.394531 60.359375 L 63.875 60.359375 L 63.875 59.84375 L 63.359375 59.84375 L 63.359375 59.324219 L 62.839844 59.324219 L 62.839844 58.804688 L 62.320312 58.804688 L 62.320312 58.285156 L 61.800781 58.285156 L 61.800781 57.769531 L 61.285156 57.769531 L 61.285156 57.25 L 60.765625 57.25 L 60.765625 56.730469 L 60.246094 56.730469 L 60.246094 56.210938 L 59.726562 56.210938 L 59.726562 55.695312 L 59.210938 55.695312 L 59.210938 55.175781 L 58.691406 55.175781 L 58.691406 54.65625 L 58.171875 54.65625 L 58.171875 54.136719 L 57.652344 54.136719 L 57.652344 53.621094 L 56.617188 53.621094 L 56.617188 53.101562 L 56.097656 53.101562 L 56.097656 52.582031 L 55.578125 52.582031 L 55.578125 52.0625 L 55.058594 52.0625 L 55.058594 51.546875 L 54.542969 51.546875 L 54.542969 51.027344 L 54.023438 51.027344 L 54.023438 50.507812 L 53.503906 50.507812 L 53.503906 49.988281 L 52.984375 49.988281 L 52.984375 49.472656 L 52.46875 49.472656 L 52.46875 48.953125 L 51.949219 48.953125 L 51.949219 48.433594 L 51.429688 48.433594 L 51.429688 47.914062 L 50.910156 47.914062 L 50.910156 47.398438 L 50.394531 47.398438 L 50.394531 46.878906 L 49.355469 46.878906 L 49.355469 46.359375 L 48.835938 46.359375 L 48.835938 45.839844 L 48.320312 45.839844 L 48.320312 45.324219 L 47.800781 45.324219 L 47.800781 44.804688 L 47.28125 44.804688 L 47.28125 44.285156 L 46.761719 44.285156 L 46.761719 43.765625 L 46.246094 43.765625 L 46.246094 43.25 L 45.726562 43.25 L 45.726562 42.730469 L 45.207031 42.730469 L 45.207031 42.210938 L 44.6875 42.210938 L 44.6875 41.691406 L 44.171875 41.691406 L 44.171875 41.175781 L 43.652344 41.175781 L 43.652344 40.65625 L 43.132812 40.65625 L 43.132812 40.136719 L 42.613281 40.136719 L 42.613281 39.617188 L 41.578125 39.617188 L 41.578125 38.0625 L 42.097656 38.0625 L 42.097656 37.542969 L 42.613281 37.542969 L 42.613281 37.027344 L 43.132812 37.027344 L 43.132812 36.507812 L 43.652344 36.507812 L 43.652344 35.988281 L 44.171875 35.988281 L 44.171875 35.46875 L 44.6875 35.46875 L 44.6875 34.949219 L 45.207031 34.949219 L 45.207031 34.433594 L 45.726562 34.433594 L 45.726562 33.914062 L 46.246094 33.914062 L 46.246094 33.394531 L 47.28125 33.394531 L 47.28125 32.875 L 47.800781 32.875 L 47.800781 32.359375 L 48.320312 32.359375 L 48.320312 31.839844 L 48.835938 31.839844 L 48.835938 31.320312 L 49.355469 31.320312 L 49.355469 30.800781 L 49.875 30.800781 L 49.875 30.285156 L 50.394531 30.285156 L 50.394531 29.765625 L 50.910156 29.765625 L 50.910156 29.246094 L 51.429688 29.246094 L 51.429688 28.726562 L 51.949219 28.726562 L 51.949219 28.210938 L 52.46875 28.210938 L 52.46875 27.691406 L 52.984375 27.691406 L 52.984375 27.171875 L 53.503906 27.171875 L 53.503906 26.652344 L 54.023438 26.652344 L 54.023438 26.136719 L 54.542969 26.136719 L 54.542969 25.617188 L 55.578125 25.617188 L 55.578125 26.136719 L 56.097656 26.136719 L 56.097656 26.652344 L 56.617188 26.652344 L 56.617188 27.171875 L 57.136719 27.171875 L 57.136719 27.691406 L 57.652344 27.691406 L 57.652344 28.210938 L 58.171875 28.210938 L 58.171875 28.726562 L 58.691406 28.726562 L 58.691406 29.246094 L 59.210938 29.246094 L 59.210938 29.765625 L 59.726562 29.765625 L 59.726562 30.285156 L 60.246094 30.285156 L 60.246094 30.800781 L 60.765625 30.800781 L 60.765625 31.320312 L 61.285156 31.320312 L 61.285156 31.839844 L 61.800781 31.839844 L 61.800781 32.359375 L 62.320312 32.359375 L 62.320312 32.875 L 63.359375 32.875 L 63.359375 33.394531 L 63.875 33.394531 L 63.875 33.914062 L 64.394531 33.914062 L 64.394531 34.433594 L 64.914062 34.433594 L 64.914062 34.949219 L 65.433594 34.949219 L 65.433594 35.46875 L 65.949219 35.46875 L 65.949219 35.988281 L 66.46875 35.988281 L 66.46875 36.507812 L 66.988281 36.507812 L 66.988281 37.027344 L 67.507812 37.027344 L 67.507812 37.542969 L 68.023438 37.542969 L 68.023438 38.0625 L 68.542969 38.0625 L 68.542969 38.582031 L 69.0625 38.582031 L 69.0625 39.101562 L 69.582031 39.101562 L 69.582031 39.617188 L 70.097656 39.617188 L 70.097656 40.136719 L 70.617188 40.136719 L 70.617188 40.65625 L 71.136719 40.65625 L 71.136719 41.175781 L 71.65625 41.175781 L 71.65625 41.691406 L 72.691406 41.691406 L 72.691406 42.210938 L 73.210938 42.210938 L 73.210938 42.730469 L 73.730469 42.730469 L 73.730469 43.25 L 74.246094 43.25 L 74.246094 43.765625 L 74.765625 43.765625 L 74.765625 44.285156 L 75.285156 44.285156 L 75.285156 44.804688 L 75.804688 44.804688 L 75.804688 45.324219 L 76.320312 45.324219 L 76.320312 45.839844 L 76.839844 45.839844 L 76.839844 46.359375 L 77.359375 46.359375 L 77.359375 46.878906 L 77.878906 46.878906 L 77.878906 47.398438 L 78.394531 47.398438 L 78.394531 47.914062 L 78.914062 47.914062 L 78.914062 48.433594 L 79.433594 48.433594 L 79.433594 48.953125 L 79.953125 48.953125 L 79.953125 49.472656 L 80.46875 49.472656 L 80.46875 49.988281 L 80.988281 49.988281 L 80.988281 50.507812 L 81.507812 50.507812 L 81.507812 51.027344 L 82.027344 51.027344 L 82.027344 51.546875 L 82.542969 51.546875 L 82.542969 52.0625 L 83.0625 52.0625 L 83.0625 52.582031 L 83.582031 52.582031 L 83.582031 53.101562 L 84.101562 53.101562 L 84.101562 53.621094 L 85.136719 53.621094 L 85.136719 54.136719 L 85.65625 54.136719 L 85.65625 54.65625 L 86.175781 54.65625 L 86.175781 55.175781 L 86.691406 55.175781 L 86.691406 55.695312 L 87.210938 55.695312 L 87.210938 56.210938 L 87.730469 56.210938 L 87.730469 56.730469 L 88.25 56.730469 L 88.25 57.25 L 88.765625 57.25 L 88.765625 57.769531 L 89.285156 57.769531 L 89.285156 58.285156 L 89.804688 58.285156 L 89.804688 58.804688 L 90.324219 58.804688 L 90.324219 59.324219 L 90.839844 59.324219 L 90.839844 59.84375 L 91.359375 59.84375 L 91.359375 60.359375 L 91.878906 60.359375 L 91.878906 60.878906 L 92.398438 60.878906 L 92.398438 61.398438 L 92.914062 61.398438 L 92.914062 61.917969 L 93.433594 61.917969 L 93.433594 62.433594 L 93.953125 62.433594 L 93.953125 62.953125 L 94.472656 62.953125 L 94.472656 63.472656 L 94.988281 63.472656 L 94.988281 63.992188 L 95.507812 63.992188 L 95.507812 64.507812 L 96.027344 64.507812 L 96.027344 65.027344 L 97.0625 65.027344 L 97.0625 65.546875 L 97.582031 65.546875 L 97.582031 66.066406 L 98.101562 66.066406 L 98.101562 66.582031 L 98.621094 66.582031 L 98.621094 67.101562 L 99.136719 67.101562 L 99.136719 67.621094 L 99.65625 67.621094 L 99.65625 68.140625 L 100.175781 68.140625 L 100.175781 68.65625 L 100.695312 68.65625 L 100.695312 69.175781 L 101.210938 69.175781 L 101.210938 69.695312 L 101.730469 69.695312 L 101.730469 70.214844 L 102.25 70.214844 Z M 102.25 4.355469 " clip-rule="nonzero"/></clipPath><radialGradient gradientTransform="matrix(-1.382405, 1.342407, -0.0508969, -0.0524134, 113.139825, 89.919064)" gradientUnits="userSpaceOnUse" r="45.389445" cx="0" id="aded82e3b2" cy="0" fx="0" fy="0"><stop stop-opacity="1" stop-color="rgb(98.770142%, 27.790833%, 3.039551%)" offset="0"/><stop stop-opacity="1" stop-color="rgb(98.648071%, 27.668762%, 2.793884%)" offset="0.25"/><stop stop-opacity="1" stop-color="rgb(98.501587%, 27.522278%, 2.497864%)" offset="0.625"/><stop stop-opacity="1" stop-color="rgb(98.429871%, 27.449036%, 2.349854%)" offset="1"/></radialGradient><clipPath id="8b7d716d2d"><path d="M 514 131 L 545 131 L 545 163 L 514 163 Z M 514 131 " clip-rule="nonzero"/></clipPath><clipPath id="0e0a7441bf"><path d="M 527.472656 131.921875 L 530.066406 131.921875 L 530.066406 132.441406 L 530.585938 132.441406 L 530.585938 131.921875 L 531.101562 131.921875 L 531.101562 132.441406 L 531.621094 132.441406 L 531.621094 141.777344 L 532.140625 141.777344 L 532.140625 141.257812 L 532.660156 141.257812 L 532.660156 140.738281 L 533.175781 140.738281 L 533.175781 140.21875 L 533.695312 140.21875 L 533.695312 139.703125 L 534.214844 139.703125 L 534.214844 139.183594 L 534.734375 139.183594 L 534.734375 138.664062 L 535.25 138.664062 L 535.25 138.144531 L 535.769531 138.144531 L 535.769531 137.628906 L 536.289062 137.628906 L 536.289062 137.109375 L 536.808594 137.109375 L 536.808594 136.589844 L 537.324219 136.589844 L 537.324219 136.070312 L 537.84375 136.070312 L 537.84375 135.554688 L 538.363281 135.554688 L 538.363281 136.070312 L 538.882812 136.070312 L 538.882812 136.589844 L 539.402344 136.589844 L 539.402344 137.109375 L 539.917969 137.109375 L 539.917969 137.628906 L 540.4375 137.628906 L 540.4375 139.183594 L 539.917969 139.183594 L 539.917969 139.703125 L 539.402344 139.703125 L 539.402344 140.21875 L 538.882812 140.21875 L 538.882812 140.738281 L 538.363281 140.738281 L 538.363281 141.257812 L 537.84375 141.257812 L 537.84375 141.777344 L 537.324219 141.777344 L 537.324219 142.292969 L 536.808594 142.292969 L 536.808594 142.8125 L 536.289062 142.8125 L 536.289062 143.332031 L 535.769531 143.332031 L 535.769531 143.851562 L 535.25 143.851562 L 535.25 144.367188 L 534.734375 144.367188 L 534.734375 144.886719 L 535.25 144.886719 L 535.25 145.40625 L 544.066406 145.40625 L 544.066406 149.554688 L 535.382812 149.554688 C 535.25 149.511719 535.210938 149.554688 535.25 149.683594 C 535.25 150.160156 535.25 150.460938 535.25 150.589844 L 535.769531 150.589844 L 535.769531 151.109375 L 536.289062 151.109375 L 536.289062 151.628906 L 536.808594 151.628906 L 536.808594 152.148438 L 537.324219 152.148438 L 537.324219 152.664062 L 537.84375 152.664062 L 537.84375 153.183594 L 538.363281 153.183594 L 538.363281 153.703125 L 538.882812 153.703125 L 538.882812 154.222656 L 539.402344 154.222656 L 539.402344 154.738281 L 539.917969 154.738281 C 539.917969 154.871094 539.917969 155.171875 539.917969 155.648438 L 539.917969 155.777344 L 540.4375 155.777344 L 540.4375 156.8125 L 539.917969 156.8125 L 539.917969 157.332031 L 539.402344 157.332031 L 539.402344 157.851562 L 538.882812 157.851562 L 538.882812 158.371094 L 538.363281 158.371094 L 538.363281 158.886719 L 537.324219 158.886719 L 537.324219 158.371094 L 536.808594 158.371094 L 536.808594 157.851562 L 536.289062 157.851562 L 536.289062 157.332031 L 535.769531 157.332031 L 535.769531 156.8125 L 535.25 156.8125 L 535.25 156.296875 L 534.734375 156.296875 L 534.734375 155.777344 L 534.214844 155.777344 L 534.214844 155.257812 L 533.695312 155.257812 L 533.695312 154.738281 L 533.175781 154.738281 L 533.175781 154.222656 L 532.660156 154.222656 L 532.660156 153.703125 L 532.140625 153.703125 L 532.140625 153.183594 L 531.621094 153.183594 L 531.621094 162.519531 L 526.953125 162.519531 L 526.953125 153.3125 C 526.996094 153.183594 526.953125 153.140625 526.824219 153.183594 C 526.347656 153.183594 526.046875 153.183594 525.917969 153.183594 L 525.917969 154.222656 L 525.398438 154.222656 L 525.398438 154.738281 L 524.878906 154.738281 L 524.878906 155.257812 L 524.363281 155.257812 L 524.363281 155.777344 L 523.84375 155.777344 L 523.84375 156.296875 L 523.324219 156.296875 L 523.324219 156.8125 L 522.804688 156.8125 L 522.804688 157.332031 L 522.289062 157.332031 L 522.289062 157.851562 L 521.769531 157.851562 L 521.769531 158.371094 L 521.25 158.371094 L 521.25 158.886719 L 520.214844 158.886719 L 520.214844 158.371094 L 519.695312 158.371094 L 519.695312 157.851562 L 519.175781 157.851562 L 519.175781 157.332031 L 518.65625 157.332031 L 518.65625 156.8125 L 518.140625 156.8125 L 518.140625 155.257812 L 519.175781 155.257812 L 519.175781 154.222656 L 519.695312 154.222656 L 519.695312 153.703125 L 520.214844 153.703125 L 520.214844 153.183594 L 520.730469 153.183594 L 520.730469 152.664062 L 521.25 152.664062 L 521.25 152.148438 L 521.769531 152.148438 L 521.769531 151.628906 L 522.804688 151.628906 L 522.804688 151.109375 L 523.324219 151.109375 L 523.324219 150.589844 L 523.84375 150.589844 L 523.84375 149.554688 L 514.507812 149.554688 L 514.507812 145.40625 L 523.324219 145.40625 L 523.324219 144.886719 L 523.84375 144.886719 L 523.84375 144.367188 L 522.804688 144.367188 L 522.804688 143.851562 L 522.289062 143.851562 L 522.289062 143.332031 L 521.769531 143.332031 L 521.769531 142.8125 L 521.25 142.8125 L 521.25 142.292969 L 520.730469 142.292969 L 520.730469 141.777344 L 520.214844 141.777344 L 520.214844 141.257812 L 519.695312 141.257812 L 519.695312 140.738281 L 519.175781 140.738281 L 519.175781 139.703125 L 518.65625 139.703125 L 518.65625 139.183594 L 518.140625 139.183594 L 518.140625 137.628906 L 518.65625 137.628906 L 518.65625 137.109375 L 519.175781 137.109375 L 519.175781 136.589844 L 519.695312 136.589844 L 519.695312 136.070312 L 521.25 136.070312 L 521.25 136.589844 L 521.769531 136.589844 L 521.769531 137.109375 L 522.289062 137.109375 L 522.289062 137.628906 L 522.804688 137.628906 L 522.804688 138.144531 L 523.324219 138.144531 L 523.324219 138.664062 L 523.84375 138.664062 L 523.84375 139.183594 L 524.363281 139.183594 L 524.363281 139.703125 L 524.878906 139.703125 L 524.878906 140.21875 L 525.398438 140.21875 L 525.398438 140.738281 L 525.917969 140.738281 L 525.917969 141.777344 L 526.953125 141.777344 L 526.953125 132.441406 L 527.472656 132.441406 Z M 527.472656 131.921875 " clip-rule="nonzero"/></clipPath><radialGradient gradientTransform="matrix(-0.714524, -0.72404, 0.699497, -0.690304, 539.659721, 157.33254)" gradientUnits="userSpaceOnUse" r="27.215781" cx="0" id="f29727810f" cy="0" fx="0" fy="0"><stop stop-opacity="1" stop-color="rgb(98.051453%, 30.11322%, 7.667542%)" offset="0"/><stop stop-opacity="1" stop-color="rgb(98.074341%, 29.946899%, 7.3349%)" offset="0.0625"/><stop stop-opacity="1" stop-color="rgb(98.097229%, 29.79126%, 7.023621%)" offset="0.121094"/><stop stop-opacity="1" stop-color="rgb(98.117065%, 29.646301%, 6.733704%)" offset="0.175781"/><stop stop-opacity="1" stop-color="rgb(98.136902%, 29.512024%, 6.466675%)" offset="0.226562"/><stop stop-opacity="1" stop-color="rgb(98.153687%, 29.388428%, 6.219482%)" offset="0.273438"/><stop stop-opacity="1" stop-color="rgb(98.170471%, 29.275513%, 5.995178%)" offset="0.316406"/><stop stop-opacity="1" stop-color="rgb(98.18573%, 29.167175%, 5.780029%)" offset="0.355469"/><stop stop-opacity="1" stop-color="rgb(98.199463%, 29.064941%, 5.577087%)" offset="0.394531"/><stop stop-opacity="1" stop-color="rgb(98.220825%, 28.919983%, 5.28717%)" offset="0.429688"/><stop stop-opacity="1" stop-color="rgb(98.246765%, 28.738403%, 4.922485%)" offset="0.5"/><stop stop-opacity="1" stop-color="rgb(98.269653%, 28.57666%, 4.600525%)" offset="0.5625"/><stop stop-opacity="1" stop-color="rgb(98.28949%, 28.437805%, 4.321289%)" offset="0.617188"/><stop stop-opacity="1" stop-color="rgb(98.306274%, 28.318787%, 4.086304%)" offset="0.664062"/><stop stop-opacity="1" stop-color="rgb(98.320007%, 28.216553%, 3.881836%)" offset="0.703125"/><stop stop-opacity="1" stop-color="rgb(98.339844%, 28.082275%, 3.613281%)" offset="0.738281"/><stop stop-opacity="1" stop-color="rgb(98.361206%, 27.932739%, 3.314209%)" offset="0.800781"/><stop stop-opacity="1" stop-color="rgb(98.376465%, 27.819824%, 3.088379%)" offset="0.847656"/><stop stop-opacity="1" stop-color="rgb(98.394775%, 27.690125%, 2.830505%)" offset="0.882812"/><stop stop-opacity="1" stop-color="rgb(98.417664%, 27.529907%, 2.510071%)" offset="0.941406"/><stop stop-opacity="1" stop-color="rgb(98.429871%, 27.449036%, 2.349854%)" offset="1"/></radialGradient></defs><g clip-path="url(#43cbcab210)"><g clip-path="url(#bccfe6eca9)"><path fill="url(#aded82e3b2)" d="M 209.320312 92.1875 L 71.429688 -49.8125 L -69.640625 87.175781 L 68.25 229.171875 Z M 209.320312 92.1875 " fill-rule="nonzero"/></g></g><path fill="#121211" d="M 245.375 36.507812 L 257.300781 36.507812 L 257.300781 37.027344 L 259.375 37.027344 L 259.375 37.542969 L 261.449219 37.542969 L 261.449219 38.0625 L 263.523438 38.0625 L 263.523438 38.582031 L 264.5625 38.582031 L 264.5625 39.101562 L 266.117188 39.101562 L 266.117188 39.617188 L 267.152344 39.617188 L 267.152344 40.136719 L 267.671875 40.136719 L 267.671875 40.65625 L 268.710938 40.65625 L 268.710938 41.175781 L 269.746094 41.175781 L 269.746094 41.691406 L 270.265625 41.691406 L 270.265625 42.210938 L 271.300781 42.210938 L 271.300781 42.730469 L 271.820312 42.730469 L 271.820312 43.25 L 272.339844 43.25 L 272.339844 43.765625 L 272.859375 43.765625 L 272.859375 44.285156 L 273.375 44.285156 L 273.375 44.804688 L 273.894531 44.804688 L 273.894531 45.324219 L 274.414062 45.324219 L 274.414062 45.839844 L 274.933594 45.839844 L 274.933594 46.359375 L 275.449219 46.359375 L 275.449219 46.878906 L 275.96875 46.878906 L 275.96875 47.914062 L 276.488281 47.914062 L 276.488281 48.433594 L 277.007812 48.433594 L 277.007812 49.472656 L 277.523438 49.472656 L 277.523438 50.507812 L 278.042969 50.507812 L 278.042969 51.546875 L 278.5625 51.546875 L 278.5625 52.582031 L 279.082031 52.582031 L 279.082031 54.136719 L 279.597656 54.136719 L 279.597656 55.175781 L 280.117188 55.175781 L 280.117188 57.25 L 280.636719 57.25 L 280.636719 59.84375 L 281.15625 59.84375 L 281.15625 63.992188 L 281.671875 63.992188 L 281.671875 132.441406 L 281.15625 132.441406 L 281.15625 137.109375 L 280.636719 137.109375 L 280.636719 139.703125 L 280.117188 139.703125 L 280.117188 141.777344 L 279.597656 141.777344 L 279.597656 143.332031 L 279.082031 143.332031 L 279.082031 144.367188 L 278.5625 144.367188 L 278.5625 145.40625 L 278.042969 145.40625 L 278.042969 146.441406 L 277.523438 146.441406 C 277.523438 146.574219 277.523438 146.875 277.523438 147.351562 L 277.523438 147.480469 L 277.007812 147.480469 L 277.007812 148.515625 L 276.488281 148.515625 L 276.488281 149.035156 L 275.96875 149.035156 L 275.96875 150.074219 L 275.449219 150.074219 L 275.449219 150.589844 L 274.933594 150.589844 L 274.933594 151.109375 L 274.414062 151.109375 L 274.414062 151.628906 L 273.894531 151.628906 L 273.894531 152.148438 L 273.375 152.148438 L 273.375 152.664062 L 272.859375 152.664062 L 272.859375 153.183594 L 272.339844 153.183594 L 272.339844 153.703125 L 271.820312 153.703125 L 271.820312 154.222656 L 271.300781 154.222656 L 271.300781 154.738281 L 270.785156 154.738281 L 270.785156 155.257812 L 269.746094 155.257812 L 269.746094 155.777344 L 269.226562 155.777344 L 269.226562 156.296875 L 268.191406 156.296875 L 268.191406 156.8125 L 267.152344 156.8125 L 267.152344 157.332031 L 266.117188 157.332031 L 266.117188 157.851562 L 265.078125 157.851562 L 265.078125 158.371094 L 263.523438 158.371094 L 263.523438 158.886719 L 261.96875 158.886719 L 261.96875 159.40625 L 260.414062 159.40625 L 260.414062 159.925781 L 257.820312 159.925781 L 257.820312 160.445312 L 244.335938 160.445312 L 244.335938 159.925781 L 241.742188 159.925781 L 241.742188 159.40625 L 240.1875 159.40625 L 240.1875 158.886719 L 238.632812 158.886719 L 238.632812 158.371094 L 237.078125 158.371094 L 237.078125 157.851562 C 236.945312 157.851562 236.644531 157.851562 236.167969 157.851562 L 236.039062 157.851562 L 236.039062 157.332031 L 235.003906 157.332031 L 235.003906 156.8125 L 234.484375 156.8125 L 234.484375 156.296875 C 234.355469 156.296875 234.050781 156.296875 233.578125 156.296875 L 233.445312 156.296875 L 233.445312 155.777344 L 232.410156 155.777344 L 232.410156 155.257812 L 231.890625 155.257812 L 231.890625 154.738281 L 230.855469 154.738281 L 230.855469 154.222656 L 230.335938 154.222656 L 230.335938 153.703125 L 229.816406 153.703125 L 229.816406 153.183594 L 229.296875 153.183594 L 229.296875 152.664062 L 228.78125 152.664062 L 228.78125 152.148438 L 228.261719 152.148438 L 228.261719 151.628906 L 227.742188 151.628906 L 227.742188 150.589844 L 227.222656 150.589844 L 227.222656 150.074219 L 226.707031 150.074219 L 226.707031 149.554688 L 226.1875 149.554688 L 226.1875 149.035156 L 225.667969 149.035156 L 225.667969 148 L 225.148438 148 L 225.148438 146.960938 L 224.632812 146.960938 L 224.632812 145.925781 L 224.113281 145.925781 L 224.113281 144.886719 L 223.59375 144.886719 L 223.59375 143.332031 L 223.074219 143.332031 L 223.074219 141.777344 L 222.558594 141.777344 L 222.558594 140.21875 L 222.039062 140.21875 L 222.039062 138.144531 L 221.519531 138.144531 L 221.519531 133.996094 L 221 133.996094 L 221 61.917969 L 221.519531 61.917969 L 221.519531 58.804688 L 222.039062 58.804688 L 222.039062 56.730469 L 222.558594 56.730469 L 222.558594 54.65625 L 223.074219 54.65625 L 223.074219 53.101562 L 223.59375 53.101562 L 223.59375 52.0625 L 224.113281 52.0625 L 224.113281 50.507812 L 224.632812 50.507812 L 224.632812 49.472656 L 225.148438 49.472656 L 225.148438 48.953125 L 225.667969 48.953125 L 225.667969 47.914062 L 226.1875 47.914062 L 226.1875 47.398438 L 226.707031 47.398438 L 226.707031 46.359375 L 227.222656 46.359375 L 227.222656 45.839844 L 227.742188 45.839844 L 227.742188 45.324219 L 228.261719 45.324219 L 228.261719 44.804688 L 228.78125 44.804688 L 228.78125 44.285156 L 229.296875 44.285156 L 229.296875 43.765625 L 229.816406 43.765625 L 229.816406 43.25 L 230.335938 43.25 L 230.335938 42.730469 L 230.855469 42.730469 L 230.855469 42.210938 L 231.890625 42.210938 L 231.890625 41.691406 L 232.410156 41.691406 L 232.410156 41.175781 L 233.445312 41.175781 L 233.445312 40.65625 L 234.484375 40.65625 L 234.484375 40.136719 L 235.519531 40.136719 L 235.519531 39.617188 L 236.558594 39.617188 L 236.558594 39.101562 L 237.59375 39.101562 L 237.59375 38.582031 L 239.152344 38.582031 L 239.152344 38.0625 L 240.707031 38.0625 L 240.707031 37.542969 L 242.78125 37.542969 L 242.78125 37.027344 L 245.375 37.027344 Z M 247.964844 55.695312 L 247.964844 56.210938 L 246.929688 56.210938 L 246.929688 56.730469 L 245.890625 56.730469 L 245.890625 57.25 L 245.375 57.25 L 245.375 57.769531 L 244.335938 57.769531 L 244.335938 58.804688 L 243.816406 58.804688 L 243.816406 59.324219 L 243.300781 59.324219 L 243.300781 60.359375 L 242.78125 60.359375 L 242.78125 60.621094 C 242.78125 60.964844 242.78125 61.226562 242.78125 61.398438 L 242.261719 61.398438 L 242.261719 63.472656 L 241.742188 63.472656 L 241.742188 133.480469 L 242.261719 133.480469 L 242.261719 135.554688 L 242.78125 135.554688 L 242.78125 136.589844 L 243.300781 136.589844 L 243.300781 137.628906 L 243.816406 137.628906 L 243.816406 138.144531 L 244.335938 138.144531 L 244.335938 139.183594 L 244.855469 139.183594 L 244.855469 139.703125 L 245.890625 139.703125 L 245.890625 140.21875 L 246.410156 140.21875 L 246.410156 140.738281 L 247.449219 140.738281 L 247.449219 141.257812 L 249.003906 141.257812 L 249.003906 141.777344 L 253.152344 141.777344 L 253.152344 141.257812 L 255.226562 141.257812 L 255.226562 140.738281 L 256.265625 140.738281 L 256.265625 140.21875 L 257.300781 140.21875 L 257.300781 139.703125 L 257.820312 139.703125 L 257.820312 139.183594 L 258.339844 139.183594 L 258.339844 138.144531 L 258.855469 138.144531 L 258.855469 137.628906 L 259.375 137.628906 L 259.375 136.589844 L 259.894531 136.589844 L 259.894531 135.035156 L 260.414062 135.035156 L 260.414062 133.480469 L 260.929688 133.480469 L 260.929688 132.960938 L 260.414062 132.960938 L 260.414062 132.441406 L 260.929688 132.441406 L 260.929688 63.992188 L 260.414062 63.992188 L 260.414062 61.917969 L 259.894531 61.917969 L 259.894531 60.359375 L 259.375 60.359375 L 259.375 59.324219 L 258.855469 59.324219 L 258.855469 58.804688 L 258.339844 58.804688 L 258.339844 58.285156 L 257.820312 58.285156 L 257.820312 57.769531 L 257.300781 57.769531 L 257.300781 57.25 L 256.78125 57.25 L 256.78125 56.730469 L 255.746094 56.730469 L 255.746094 56.210938 L 254.707031 56.210938 L 254.707031 55.695312 Z M 247.964844 55.695312 " fill-opacity="0.976" fill-rule="nonzero"/><path fill="#121211" d="M 146.328125 38.0625 L 183.664062 38.0625 L 183.664062 38.582031 L 187.292969 38.582031 L 187.292969 39.101562 L 188.851562 39.101562 L 188.851562 39.617188 L 190.925781 39.617188 L 190.925781 40.136719 L 191.960938 40.136719 L 191.960938 40.65625 L 193.515625 40.65625 L 193.515625 41.175781 C 193.648438 41.175781 193.949219 41.175781 194.425781 41.175781 L 194.554688 41.175781 L 194.554688 41.691406 L 195.589844 41.691406 L 195.589844 42.210938 L 196.109375 42.210938 L 196.109375 42.730469 L 196.628906 42.730469 L 196.628906 43.25 L 197.664062 43.25 L 197.664062 43.765625 L 198.183594 43.765625 L 198.183594 44.285156 L 198.703125 44.285156 L 198.703125 44.804688 L 199.222656 44.804688 L 199.222656 45.324219 L 199.738281 45.324219 L 199.738281 45.839844 L 200.257812 45.839844 L 200.257812 46.359375 L 200.777344 46.359375 L 200.777344 46.878906 L 201.296875 46.878906 L 201.296875 47.914062 L 201.816406 47.914062 L 201.816406 48.433594 L 202.332031 48.433594 L 202.332031 49.472656 L 202.851562 49.472656 L 202.851562 49.988281 L 203.371094 49.988281 L 203.371094 51.027344 L 203.890625 51.027344 L 203.890625 52.582031 L 204.40625 52.582031 L 204.40625 54.136719 L 204.925781 54.136719 L 204.925781 55.695312 L 205.445312 55.695312 L 205.445312 58.285156 L 205.964844 58.285156 L 205.964844 84.214844 L 205.445312 84.214844 L 205.445312 86.808594 L 204.925781 86.808594 L 204.925781 88.882812 L 204.40625 88.882812 L 204.40625 89.917969 L 203.890625 89.917969 L 203.890625 91.476562 L 203.371094 91.476562 L 203.371094 91.992188 L 202.851562 91.992188 C 202.851562 92.121094 202.851562 92.425781 202.851562 92.902344 L 202.851562 93.03125 L 202.332031 93.03125 L 202.332031 94.066406 L 201.816406 94.066406 L 201.816406 94.585938 L 201.296875 94.585938 L 201.296875 95.105469 L 200.777344 95.105469 L 200.777344 95.625 L 200.257812 95.625 L 200.257812 96.140625 L 199.738281 96.140625 L 199.738281 96.660156 L 199.222656 96.660156 L 199.222656 97.179688 L 198.703125 97.179688 L 198.703125 97.699219 L 198.183594 97.699219 L 198.183594 98.214844 L 197.664062 98.214844 L 197.664062 98.734375 L 196.628906 98.734375 L 196.628906 99.253906 L 196.109375 99.253906 L 196.109375 99.773438 L 195.074219 99.773438 L 195.074219 100.289062 L 194.554688 100.289062 L 194.554688 101.328125 L 195.589844 101.328125 L 195.589844 101.847656 C 195.722656 101.847656 196.023438 101.847656 196.5 101.847656 L 196.628906 101.847656 L 196.628906 102.363281 L 197.664062 102.363281 L 197.664062 102.882812 L 198.183594 102.882812 L 198.183594 103.402344 L 199.222656 103.402344 L 199.222656 103.921875 L 199.738281 103.921875 L 199.738281 104.4375 L 200.257812 104.4375 L 200.257812 104.957031 L 200.777344 104.957031 L 200.777344 105.476562 L 201.296875 105.476562 L 201.296875 106.511719 L 201.816406 106.511719 L 201.816406 107.03125 L 202.332031 107.03125 L 202.332031 108.070312 L 202.851562 108.070312 L 202.851562 108.585938 L 203.371094 108.585938 L 203.371094 109.625 L 203.890625 109.625 L 203.890625 110.660156 L 204.40625 110.660156 L 204.40625 112.21875 L 204.925781 112.21875 L 204.925781 114.292969 L 205.445312 114.292969 L 205.445312 116.882812 L 205.964844 116.882812 L 205.964844 145.40625 L 206.480469 145.40625 L 206.480469 150.589844 L 207 150.589844 L 207 153.183594 L 207.519531 153.183594 L 207.519531 155.257812 L 208.039062 155.257812 L 208.039062 156.8125 L 208.554688 156.8125 L 208.554688 158.371094 L 209.074219 158.371094 L 209.074219 158.886719 L 187.8125 158.886719 L 187.8125 158.371094 L 187.292969 158.371094 L 187.292969 155.777344 L 186.777344 155.777344 L 186.777344 153.183594 L 186.257812 153.183594 L 186.257812 147.480469 L 185.738281 147.480469 L 185.738281 118.441406 L 185.21875 118.441406 L 185.21875 116.882812 L 184.703125 116.882812 L 184.703125 115.328125 L 184.183594 115.328125 L 184.183594 114.808594 L 183.664062 114.808594 L 183.664062 113.773438 L 183.144531 113.773438 L 183.144531 113.253906 L 182.628906 113.253906 L 182.628906 112.734375 L 182.109375 112.734375 L 182.109375 112.21875 L 181.589844 112.21875 L 181.589844 111.699219 L 180.554688 111.699219 L 180.554688 111.179688 L 178.996094 111.179688 L 178.996094 110.660156 L 176.921875 110.660156 L 176.921875 110.144531 L 167.070312 110.144531 L 167.070312 110.660156 L 166.550781 110.660156 L 166.550781 158.886719 L 146.328125 158.886719 Z M 166.550781 56.730469 L 166.550781 91.992188 L 179.515625 91.992188 L 179.515625 91.476562 L 181.070312 91.476562 L 181.070312 90.957031 L 182.109375 90.957031 L 182.109375 90.4375 L 182.628906 90.4375 L 182.628906 89.917969 L 183.144531 89.917969 L 183.144531 89.402344 L 183.664062 89.402344 L 183.664062 88.363281 L 184.183594 88.363281 L 184.183594 87.84375 L 184.703125 87.84375 L 184.703125 86.808594 L 185.21875 86.808594 L 185.21875 85.253906 L 185.738281 85.253906 L 185.738281 62.953125 L 185.21875 62.953125 L 185.21875 61.398438 L 184.703125 61.398438 L 184.703125 60.359375 L 184.183594 60.359375 L 184.183594 59.84375 L 183.664062 59.84375 L 183.664062 59.324219 L 183.144531 59.324219 L 183.144531 58.804688 L 182.628906 58.804688 L 182.628906 58.285156 L 182.109375 58.285156 L 182.109375 57.769531 L 181.070312 57.769531 L 181.070312 57.25 L 178.996094 57.25 L 178.996094 56.730469 Z M 166.550781 56.730469 " fill-opacity="0.976" fill-rule="nonzero"/><path fill="#121211" d="M 290.488281 38.0625 L 311.621094 38.0625 C 311.75 38.019531 311.792969 38.0625 311.75 38.191406 C 311.75 38.667969 311.75 38.96875 311.75 39.101562 L 312.269531 39.101562 L 312.269531 41.691406 L 312.789062 41.691406 L 312.789062 45.324219 L 313.304688 45.324219 L 313.304688 48.433594 L 313.824219 48.433594 L 313.824219 52.0625 L 314.34375 52.0625 L 314.34375 55.175781 L 314.863281 55.175781 L 314.863281 58.804688 L 315.378906 58.804688 L 315.378906 61.917969 L 315.898438 61.917969 L 315.898438 65.546875 L 316.417969 65.546875 L 316.417969 69.175781 L 316.9375 69.175781 L 316.9375 72.289062 L 317.453125 72.289062 L 317.453125 74.363281 L 317.972656 74.363281 L 317.972656 77.992188 L 318.492188 77.992188 L 318.492188 81.621094 L 319.011719 81.621094 L 319.011719 84.734375 L 319.527344 84.734375 L 319.527344 87.84375 L 320.046875 87.84375 L 320.046875 90.957031 L 320.566406 90.957031 L 320.566406 94.066406 L 321.085938 94.066406 L 321.085938 97.699219 L 321.601562 97.699219 L 321.601562 100.808594 L 322.121094 100.808594 L 322.121094 104.4375 L 322.640625 104.4375 L 322.640625 107.550781 L 323.160156 107.550781 L 323.160156 110.660156 L 323.675781 110.660156 L 323.675781 111.179688 L 323.160156 111.179688 L 323.160156 111.699219 L 323.675781 111.699219 L 323.675781 114.292969 L 324.195312 114.292969 L 324.195312 117.921875 L 324.714844 117.921875 L 324.714844 121.03125 L 325.234375 121.03125 L 325.234375 125.179688 L 325.75 125.179688 L 325.75 128.292969 L 326.269531 128.292969 L 326.269531 128.8125 L 326.789062 128.8125 L 326.789062 125.179688 L 327.308594 125.179688 L 327.308594 121.550781 L 327.824219 121.550781 L 327.824219 118.441406 L 328.34375 118.441406 L 328.34375 114.808594 L 328.863281 114.808594 L 328.863281 111.179688 L 329.382812 111.179688 L 329.382812 108.070312 L 329.898438 108.070312 L 329.898438 104.4375 L 330.417969 104.4375 L 330.417969 101.328125 L 330.9375 101.328125 L 330.9375 98.214844 L 331.457031 98.214844 L 331.457031 94.585938 L 331.972656 94.585938 L 331.972656 90.957031 L 332.492188 90.957031 L 332.492188 87.328125 L 333.011719 87.328125 L 333.011719 83.695312 L 333.53125 83.695312 L 333.53125 80.066406 L 334.046875 80.066406 L 334.046875 76.953125 L 334.566406 76.953125 L 334.566406 73.84375 L 335.085938 73.84375 L 335.085938 70.730469 L 335.605469 70.730469 L 335.605469 67.101562 L 336.121094 67.101562 L 336.121094 63.992188 L 336.640625 63.992188 L 336.640625 60.878906 L 337.160156 60.878906 L 337.160156 57.769531 L 337.679688 57.769531 L 337.679688 54.65625 L 338.195312 54.65625 L 338.195312 51.027344 L 338.714844 51.027344 L 338.714844 47.914062 L 339.234375 47.914062 L 339.234375 44.285156 L 339.753906 44.285156 L 339.753906 41.175781 L 340.269531 41.175781 L 340.269531 38.582031 L 340.789062 38.582031 L 340.789062 38.0625 L 359.976562 38.0625 L 359.976562 41.175781 L 359.457031 41.175781 L 359.457031 43.765625 L 358.941406 43.765625 L 358.941406 46.878906 L 358.421875 46.878906 L 358.421875 49.988281 L 357.902344 49.988281 L 357.902344 53.101562 L 357.382812 53.101562 L 357.382812 56.210938 L 356.867188 56.210938 L 356.867188 59.324219 L 356.347656 59.324219 L 356.347656 62.433594 L 355.828125 62.433594 L 355.828125 65.027344 L 355.308594 65.027344 L 355.308594 67.621094 L 354.792969 67.621094 L 354.792969 70.730469 L 354.273438 70.730469 L 354.273438 73.84375 L 353.753906 73.84375 L 353.753906 76.953125 L 353.234375 76.953125 L 353.234375 80.066406 L 352.71875 80.066406 L 352.71875 83.175781 L 352.199219 83.175781 L 352.199219 85.769531 L 351.679688 85.769531 L 351.679688 88.882812 L 351.160156 88.882812 L 351.160156 91.992188 L 350.644531 91.992188 L 350.644531 94.585938 L 350.125 94.585938 L 350.125 97.699219 L 349.605469 97.699219 L 349.605469 100.808594 L 349.085938 100.808594 L 349.085938 103.402344 L 348.570312 103.402344 L 348.570312 106.511719 L 348.050781 106.511719 L 348.050781 109.625 L 347.53125 109.625 L 347.53125 112.734375 L 347.011719 112.734375 L 347.011719 115.847656 L 346.496094 115.847656 L 346.496094 118.441406 L 345.976562 118.441406 L 345.976562 121.550781 L 345.457031 121.550781 L 345.457031 124.664062 L 344.9375 124.664062 L 344.9375 127.773438 L 344.417969 127.773438 L 344.417969 130.886719 L 343.902344 130.886719 L 343.902344 133.480469 L 343.382812 133.480469 L 343.382812 136.589844 L 342.863281 136.589844 L 342.863281 139.183594 L 342.34375 139.183594 L 342.34375 142.292969 L 341.828125 142.292969 L 341.828125 145.40625 L 341.308594 145.40625 L 341.308594 148 L 340.789062 148 L 340.789062 151.109375 L 340.269531 151.109375 L 340.269531 154.738281 L 339.753906 154.738281 L 339.753906 157.332031 L 339.234375 157.332031 L 339.234375 158.886719 L 312.269531 158.886719 L 312.269531 157.851562 L 311.75 157.851562 L 311.75 154.738281 L 311.230469 154.738281 L 311.230469 151.628906 L 310.714844 151.628906 L 310.714844 148.515625 L 310.195312 148.515625 L 310.195312 145.40625 L 309.675781 145.40625 L 309.675781 142.8125 L 309.15625 142.8125 L 309.15625 139.703125 L 308.640625 139.703125 L 308.640625 137.109375 L 308.121094 137.109375 L 308.121094 133.996094 L 307.601562 133.996094 L 307.601562 130.886719 L 307.082031 130.886719 L 307.082031 127.773438 L 306.566406 127.773438 L 306.566406 124.664062 L 306.046875 124.664062 L 306.046875 121.550781 L 305.527344 121.550781 L 305.527344 118.957031 L 305.007812 118.957031 L 305.007812 115.847656 L 304.492188 115.847656 L 304.492188 112.734375 L 303.972656 112.734375 L 303.972656 110.144531 L 303.453125 110.144531 L 303.453125 107.550781 L 302.933594 107.550781 L 302.933594 104.4375 L 302.417969 104.4375 L 302.417969 101.328125 L 301.898438 101.328125 L 301.898438 98.734375 L 301.378906 98.734375 L 301.378906 95.625 L 300.859375 95.625 L 300.859375 92.511719 L 300.34375 92.511719 L 300.34375 89.402344 L 299.824219 89.402344 L 299.824219 86.808594 L 299.304688 86.808594 L 299.304688 84.214844 L 298.785156 84.214844 L 298.785156 81.621094 L 298.269531 81.621094 L 298.269531 79.027344 L 297.75 79.027344 L 297.75 76.4375 L 297.230469 76.4375 L 297.230469 73.84375 L 296.710938 73.84375 L 296.710938 71.25 L 296.191406 71.25 L 296.191406 68.140625 L 295.675781 68.140625 L 295.675781 65.546875 L 295.15625 65.546875 L 295.15625 62.433594 L 294.636719 62.433594 L 294.636719 59.324219 L 294.117188 59.324219 L 294.117188 56.730469 L 293.601562 56.730469 L 293.601562 54.136719 L 293.082031 54.136719 L 293.082031 51.546875 L 292.5625 51.546875 L 292.5625 48.433594 L 292.042969 48.433594 L 292.042969 45.839844 L 291.527344 45.839844 L 291.527344 43.25 L 291.007812 43.25 L 291.007812 40.136719 L 290.488281 40.136719 Z M 290.488281 38.0625 " fill-opacity="0.976" fill-rule="nonzero"/><path fill="#131312" d="M 372.421875 38.0625 L 409.242188 38.0625 L 409.242188 38.582031 L 412.871094 38.582031 L 412.871094 39.101562 L 414.425781 39.101562 L 414.425781 39.617188 L 416.5 39.617188 L 416.5 40.136719 L 417.539062 40.136719 L 417.539062 40.65625 L 419.09375 40.65625 L 419.09375 41.175781 C 419.222656 41.175781 419.523438 41.175781 420 41.175781 L 420.128906 41.175781 L 420.128906 41.691406 L 421.167969 41.691406 L 421.167969 42.210938 L 421.6875 42.210938 L 421.6875 42.730469 L 422.203125 42.730469 L 422.203125 43.25 L 423.242188 43.25 L 423.242188 43.765625 L 423.761719 43.765625 L 423.761719 44.285156 L 424.277344 44.285156 L 424.277344 44.804688 L 424.796875 44.804688 L 424.796875 45.324219 L 425.316406 45.324219 L 425.316406 45.839844 L 425.835938 45.839844 L 425.835938 46.359375 L 426.351562 46.359375 L 426.351562 46.878906 L 426.871094 46.878906 L 426.871094 47.398438 L 427.390625 47.398438 L 427.390625 48.433594 L 427.910156 48.433594 L 427.910156 48.953125 L 428.425781 48.953125 L 428.425781 49.988281 L 428.945312 49.988281 L 428.945312 51.027344 L 429.464844 51.027344 L 429.464844 52.582031 L 429.984375 52.582031 L 429.984375 54.136719 L 430.5 54.136719 L 430.5 56.210938 L 431.019531 56.210938 L 431.019531 59.84375 L 431.539062 59.84375 L 431.539062 83.175781 L 431.019531 83.175781 L 431.019531 86.289062 L 430.5 86.289062 L 430.5 88.363281 L 429.984375 88.363281 L 429.984375 89.917969 L 429.464844 89.917969 C 429.464844 90.046875 429.464844 90.351562 429.464844 90.828125 L 429.464844 90.957031 L 428.945312 90.957031 L 428.945312 91.992188 L 428.425781 91.992188 L 428.425781 92.511719 L 427.910156 92.511719 L 427.910156 93.550781 L 427.390625 93.550781 L 427.390625 94.066406 L 426.871094 94.066406 L 426.871094 94.585938 L 426.351562 94.585938 L 426.351562 95.625 L 425.835938 95.625 L 425.835938 96.140625 L 425.316406 96.140625 L 425.316406 96.660156 L 424.796875 96.660156 L 424.796875 97.179688 L 424.277344 97.179688 L 424.277344 97.699219 L 423.761719 97.699219 L 423.761719 98.214844 L 422.722656 98.214844 L 422.722656 98.734375 L 422.203125 98.734375 L 422.203125 99.253906 C 422.074219 99.253906 421.773438 99.253906 421.296875 99.253906 L 421.167969 99.253906 L 421.167969 99.773438 L 420.128906 99.773438 L 420.128906 100.289062 L 419.613281 100.289062 L 419.613281 100.808594 L 420.128906 100.808594 L 420.128906 101.328125 L 421.167969 101.328125 L 421.167969 101.847656 L 422.203125 101.847656 L 422.203125 102.363281 L 422.722656 102.363281 L 422.722656 102.882812 L 423.761719 102.882812 L 423.761719 103.402344 L 424.277344 103.402344 L 424.277344 103.921875 L 424.796875 103.921875 L 424.796875 104.4375 L 425.316406 104.4375 L 425.316406 104.957031 L 425.835938 104.957031 L 425.835938 105.476562 L 426.351562 105.476562 L 426.351562 105.996094 L 426.871094 105.996094 L 426.871094 107.03125 L 427.390625 107.03125 L 427.390625 107.550781 L 427.910156 107.550781 L 427.910156 108.070312 L 428.425781 108.070312 L 428.425781 109.105469 L 428.945312 109.105469 L 428.945312 110.144531 L 429.464844 110.144531 L 429.464844 111.699219 L 429.984375 111.699219 L 429.984375 113.253906 L 430.5 113.253906 L 430.5 115.328125 L 431.019531 115.328125 L 431.019531 119.476562 L 431.539062 119.476562 L 431.539062 147.480469 L 432.058594 147.480469 L 432.058594 151.109375 L 432.574219 151.109375 L 432.574219 153.183594 L 433.09375 153.183594 L 433.09375 155.257812 L 433.613281 155.257812 L 433.613281 156.8125 L 434.132812 156.8125 L 434.132812 158.886719 L 413.390625 158.886719 L 413.390625 157.851562 L 412.871094 157.851562 L 412.871094 155.777344 L 412.351562 155.777344 L 412.351562 152.664062 L 411.832031 152.664062 L 411.832031 147.480469 L 411.316406 147.480469 L 411.316406 118.441406 L 410.796875 118.441406 L 410.796875 116.882812 L 410.277344 116.882812 L 410.277344 115.328125 L 409.757812 115.328125 L 409.757812 114.292969 L 409.242188 114.292969 L 409.242188 113.773438 L 408.722656 113.773438 L 408.722656 113.253906 L 408.203125 113.253906 L 408.203125 112.734375 L 407.683594 112.734375 L 407.683594 112.21875 L 407.167969 112.21875 L 407.167969 111.699219 L 406.128906 111.699219 L 406.128906 111.179688 L 405.09375 111.179688 L 405.09375 110.660156 L 403.019531 110.660156 L 403.019531 110.144531 L 392.644531 110.144531 L 392.644531 110.660156 L 392.128906 110.660156 L 392.128906 158.886719 L 371.902344 158.886719 L 371.902344 38.582031 L 372.421875 38.582031 Z M 392.644531 56.730469 L 392.644531 57.25 L 392.128906 57.25 L 392.128906 91.992188 L 404.574219 91.992188 L 404.574219 91.476562 L 406.128906 91.476562 L 406.128906 90.957031 L 407.167969 90.957031 L 407.167969 90.4375 L 407.425781 90.4375 C 407.769531 90.4375 408.03125 90.4375 408.203125 90.4375 L 408.203125 89.917969 L 408.722656 89.917969 L 408.722656 89.402344 L 409.242188 89.402344 L 409.242188 88.363281 L 409.757812 88.363281 L 409.757812 87.84375 L 410.277344 87.84375 L 410.277344 86.289062 L 410.796875 86.289062 L 410.796875 84.734375 L 411.316406 84.734375 L 411.316406 63.472656 L 410.796875 63.472656 L 410.796875 61.398438 L 410.277344 61.398438 L 410.277344 60.359375 L 409.757812 60.359375 L 409.757812 59.84375 L 409.242188 59.84375 L 409.242188 58.804688 L 408.722656 58.804688 L 408.722656 58.285156 L 407.683594 58.285156 L 407.683594 57.769531 L 407.167969 57.769531 L 407.167969 57.25 L 405.09375 57.25 L 405.09375 56.730469 Z M 392.644531 56.730469 " fill-opacity="0.976" fill-rule="nonzero"/><path fill="#121211" d="M 447.613281 38.0625 L 483.914062 38.0625 L 483.914062 38.582031 L 487.542969 38.582031 L 487.542969 39.101562 L 489.097656 39.101562 L 489.097656 39.617188 L 491.175781 39.617188 L 491.175781 40.136719 L 492.730469 40.136719 L 492.730469 40.65625 L 493.765625 40.65625 L 493.765625 41.175781 C 493.894531 41.175781 494.199219 41.175781 494.675781 41.175781 L 494.804688 41.175781 L 494.804688 41.691406 L 495.839844 41.691406 L 495.839844 42.210938 L 496.359375 42.210938 L 496.359375 42.730469 L 497.398438 42.730469 L 497.398438 43.25 L 497.914062 43.25 L 497.914062 43.765625 L 498.433594 43.765625 L 498.433594 44.285156 L 498.953125 44.285156 L 498.953125 44.804688 L 499.472656 44.804688 L 499.472656 45.324219 L 499.988281 45.324219 L 499.988281 45.839844 L 500.507812 45.839844 L 500.507812 46.359375 L 501.027344 46.359375 L 501.027344 46.878906 L 501.546875 46.878906 L 501.546875 47.914062 L 502.0625 47.914062 L 502.0625 48.433594 L 502.582031 48.433594 L 502.582031 49.472656 L 503.101562 49.472656 L 503.101562 49.988281 L 503.621094 49.988281 L 503.621094 51.027344 L 504.136719 51.027344 L 504.136719 52.582031 L 504.65625 52.582031 L 504.65625 54.136719 L 505.175781 54.136719 L 505.175781 55.695312 L 505.695312 55.695312 L 505.695312 58.804688 L 506.210938 58.804688 L 506.210938 84.214844 L 505.695312 84.214844 L 505.695312 86.808594 L 505.175781 86.808594 L 505.175781 88.363281 L 504.65625 88.363281 L 504.65625 89.917969 L 504.136719 89.917969 C 504.136719 90.046875 504.136719 90.351562 504.136719 90.828125 L 504.136719 90.957031 L 503.621094 90.957031 L 503.621094 91.992188 L 503.101562 91.992188 L 503.101562 92.511719 L 502.582031 92.511719 L 502.582031 93.550781 L 502.0625 93.550781 L 502.0625 94.066406 L 501.546875 94.066406 L 501.546875 95.105469 L 501.027344 95.105469 L 501.027344 95.625 L 500.507812 95.625 L 500.507812 96.140625 L 499.988281 96.140625 L 499.988281 96.660156 L 499.472656 96.660156 L 499.472656 97.179688 L 498.953125 97.179688 L 498.953125 97.699219 L 498.433594 97.699219 L 498.433594 98.214844 L 497.398438 98.214844 L 497.398438 98.734375 L 496.878906 98.734375 L 496.878906 99.253906 C 496.75 99.253906 496.445312 99.253906 495.96875 99.253906 L 495.839844 99.253906 L 495.839844 99.773438 L 494.804688 99.773438 L 494.804688 100.289062 L 494.285156 100.289062 L 494.285156 100.808594 C 494.414062 100.808594 494.71875 100.808594 495.191406 100.808594 L 495.324219 100.808594 L 495.324219 101.328125 L 496.359375 101.328125 L 496.359375 101.847656 L 496.878906 101.847656 L 496.878906 102.363281 L 497.914062 102.363281 L 497.914062 102.882812 L 498.433594 102.882812 L 498.433594 103.402344 L 499.472656 103.402344 L 499.472656 103.921875 L 499.988281 103.921875 L 499.988281 104.4375 L 500.507812 104.4375 L 500.507812 104.957031 L 501.027344 104.957031 L 501.027344 105.476562 L 501.546875 105.476562 L 501.546875 106.511719 L 502.0625 106.511719 L 502.0625 107.03125 L 502.582031 107.03125 L 502.582031 108.070312 L 503.101562 108.070312 L 503.101562 108.585938 L 503.621094 108.585938 L 503.621094 109.625 L 504.136719 109.625 L 504.136719 110.660156 L 504.65625 110.660156 L 504.65625 112.21875 L 505.175781 112.21875 L 505.175781 114.292969 L 505.695312 114.292969 L 505.695312 116.882812 L 506.210938 116.882812 L 506.210938 145.925781 L 506.730469 145.925781 L 506.730469 151.109375 L 507.25 151.109375 L 507.25 153.703125 L 507.769531 153.703125 L 507.769531 155.777344 L 508.285156 155.777344 L 508.285156 157.332031 L 508.804688 157.332031 L 508.804688 158.886719 L 488.0625 158.886719 L 488.0625 157.851562 L 487.542969 157.851562 L 487.542969 156.296875 L 487.023438 156.296875 L 487.023438 153.703125 L 486.507812 153.703125 L 486.507812 149.035156 L 485.988281 149.035156 L 485.988281 118.441406 L 485.46875 118.441406 L 485.46875 116.367188 L 484.949219 116.367188 C 484.949219 116.234375 484.949219 115.933594 484.949219 115.457031 L 484.949219 115.328125 L 484.433594 115.328125 L 484.433594 114.292969 L 483.914062 114.292969 L 483.914062 113.773438 L 483.394531 113.773438 L 483.394531 113.253906 L 482.875 113.253906 L 482.875 112.734375 L 482.359375 112.734375 L 482.359375 112.21875 L 481.839844 112.21875 L 481.839844 111.699219 L 480.800781 111.699219 L 480.800781 111.179688 L 479.765625 111.179688 L 479.765625 110.660156 L 477.691406 110.660156 L 477.691406 110.144531 L 467.839844 110.144531 L 467.839844 158.886719 L 447.613281 158.886719 Z M 467.839844 56.730469 L 467.839844 91.992188 L 479.765625 91.992188 L 479.765625 91.476562 L 481.320312 91.476562 L 481.320312 90.957031 L 481.839844 90.957031 L 481.839844 90.4375 L 482.875 90.4375 L 482.875 89.917969 L 483.394531 89.917969 L 483.394531 89.402344 L 483.914062 89.402344 L 483.914062 88.363281 L 484.433594 88.363281 L 484.433594 87.84375 L 484.949219 87.84375 L 484.949219 86.289062 L 485.46875 86.289062 L 485.46875 84.734375 L 485.988281 84.734375 L 485.988281 62.953125 L 485.46875 62.953125 L 485.46875 61.398438 L 484.949219 61.398438 L 484.949219 60.359375 L 484.433594 60.359375 L 484.433594 59.84375 L 483.914062 59.84375 L 483.914062 59.324219 L 483.394531 59.324219 L 483.394531 58.804688 L 482.875 58.804688 L 482.875 58.285156 L 482.359375 58.285156 L 482.359375 57.769531 L 481.320312 57.769531 L 481.320312 57.25 L 479.765625 57.25 L 479.765625 56.730469 Z M 467.839844 56.730469 " fill-opacity="0.976" fill-rule="nonzero"/><g clip-path="url(#8b7d716d2d)"><g clip-path="url(#0e0a7441bf)"><path fill="url(#f29727810f)" d="M 529.09375 177.296875 L 559.363281 147.421875 L 529.484375 117.144531 L 499.214844 147.019531 Z M 529.09375 177.296875 " fill-rule="nonzero"/></g></g></svg>