<svg xmlns="http://www.w3.org/2000/svg" xmlns:xlink="http://www.w3.org/1999/xlink" width="1509" zoomAndPan="magnify" viewBox="0 0 1131.75 389.249997" height="519" preserveAspectRatio="xMidYMid meet" version="1.0"><defs><clipPath id="0abb100f2d"><path d="M 20 24 L 244 24 L 244 366 L 20 366 Z M 20 24 " clip-rule="nonzero"/></clipPath><clipPath id="84f34d576a"><path d="M 198.402344 24.027344 L 242.179688 24.027344 L 242.179688 28.183594 L 243.25 28.183594 L 243.25 41.691406 L 243.25 24.027344 L 242.179688 41.691406 L 242.179688 70.789062 L 243.25 70.789062 L 243.25 71.828125 L 242.179688 71.828125 L 242.179688 365.652344 C 242.269531 365.910156 242.179688 365.996094 241.914062 365.910156 L 198.402344 365.910156 L 198.402344 244.589844 C 198.492188 244.328125 198.402344 244.242188 198.132812 244.328125 C 197.15625 244.328125 196.53125 244.328125 196.265625 244.328125 L 196.265625 245.367188 L 195.199219 245.367188 L 195.199219 247.445312 L 193.0625 247.445312 L 193.0625 248.484375 L 191.996094 248.484375 L 191.996094 249.523438 L 190.925781 249.523438 L 190.925781 250.5625 L 189.859375 250.5625 L 189.859375 251.601562 L 188.792969 251.601562 L 188.792969 252.640625 L 187.722656 252.640625 L 187.722656 253.679688 L 186.65625 253.679688 L 186.65625 254.71875 L 185.589844 254.71875 L 185.589844 255.757812 L 184.519531 255.757812 L 184.519531 256.796875 L 183.453125 256.796875 L 183.453125 257.835938 L 182.386719 257.835938 L 182.386719 258.878906 L 181.316406 258.878906 L 181.316406 259.914062 L 179.179688 259.914062 L 179.179688 260.957031 L 178.113281 260.957031 L 178.113281 261.996094 L 177.046875 261.996094 L 177.046875 263.03125 L 175.976562 263.03125 L 175.976562 264.074219 L 174.910156 264.074219 L 174.910156 265.113281 L 173.839844 265.113281 L 173.839844 266.152344 L 172.773438 266.152344 L 172.773438 267.191406 L 171.707031 267.191406 L 171.707031 268.230469 L 170.640625 268.230469 L 170.640625 269.269531 L 169.570312 269.269531 L 169.570312 270.308594 L 168.503906 270.308594 L 168.503906 271.347656 L 166.367188 271.347656 L 166.367188 272.386719 L 165.300781 272.386719 L 165.300781 273.425781 L 164.230469 273.425781 L 164.230469 274.464844 L 163.164062 274.464844 L 163.164062 275.503906 L 162.097656 275.503906 L 162.097656 276.542969 L 161.027344 276.542969 L 161.027344 277.582031 L 159.960938 277.582031 L 159.960938 278.621094 L 158.894531 278.621094 L 158.894531 279.660156 L 157.824219 279.660156 L 157.824219 280.699219 L 156.757812 280.699219 L 156.757812 281.738281 L 155.691406 281.738281 L 155.691406 282.777344 L 154.621094 282.777344 L 154.621094 283.816406 L 153.554688 283.816406 L 153.554688 284.855469 L 152.488281 284.855469 L 152.488281 285.894531 L 151.417969 285.894531 L 151.417969 286.933594 L 150.351562 286.933594 L 150.351562 287.972656 L 149.285156 287.972656 L 149.285156 289.011719 L 147.148438 289.011719 L 147.148438 290.050781 L 146.078125 290.050781 L 146.078125 291.089844 L 145.011719 291.089844 L 145.011719 292.128906 L 143.945312 292.128906 L 143.945312 293.167969 L 142.875 293.167969 L 142.875 294.207031 L 141.808594 294.207031 L 141.808594 295.246094 L 140.742188 295.246094 L 140.742188 296.285156 L 139.671875 296.285156 L 139.671875 297.324219 L 138.605469 297.324219 L 138.605469 298.363281 L 137.539062 298.363281 L 137.539062 299.402344 L 136.46875 299.402344 L 136.46875 300.441406 L 135.402344 300.441406 L 135.402344 301.484375 L 134.335938 301.484375 L 134.335938 302.519531 L 133.265625 302.519531 L 133.265625 303.558594 L 131.128906 303.558594 L 131.128906 304.601562 L 130.0625 304.601562 L 130.0625 305.640625 L 128.996094 305.640625 L 128.996094 306.679688 L 127.925781 306.679688 L 127.925781 307.71875 L 126.859375 307.71875 L 126.859375 308.757812 L 125.792969 308.757812 L 125.792969 309.796875 L 124.722656 309.796875 L 124.722656 310.835938 L 123.65625 310.835938 L 123.65625 311.875 L 122.589844 311.875 L 122.589844 312.914062 L 121.519531 312.914062 L 121.519531 313.953125 L 120.453125 313.953125 L 120.453125 314.992188 L 119.386719 314.992188 L 119.386719 316.03125 L 117.25 316.03125 L 117.25 317.070312 L 116.179688 317.070312 L 116.179688 318.109375 L 115.113281 318.109375 L 115.113281 319.148438 L 114.046875 319.148438 L 114.046875 320.1875 L 112.976562 320.1875 L 112.976562 321.226562 L 111.910156 321.226562 L 111.910156 322.265625 L 110.84375 322.265625 L 110.84375 323.304688 L 109.773438 323.304688 L 109.773438 324.34375 L 108.707031 324.34375 L 108.707031 325.382812 L 107.640625 325.382812 L 107.640625 326.421875 L 106.570312 326.421875 L 106.570312 327.460938 L 105.503906 327.460938 L 105.503906 328.5 L 103.367188 328.5 L 103.367188 329.539062 L 102.300781 329.539062 L 102.300781 330.578125 L 101.234375 330.578125 L 101.234375 331.617188 L 100.164062 331.617188 L 100.164062 332.65625 L 99.097656 332.65625 L 99.097656 333.695312 L 98.027344 333.695312 L 98.027344 334.734375 L 96.960938 334.734375 L 96.960938 333.695312 L 95.894531 333.695312 L 95.894531 332.65625 L 94.824219 332.65625 L 94.824219 331.617188 L 93.757812 331.617188 L 93.757812 330.578125 L 92.691406 330.578125 L 92.691406 329.539062 L 91.621094 329.539062 L 91.621094 328.5 L 90.554688 328.5 L 90.554688 327.460938 L 89.488281 327.460938 L 89.488281 326.421875 L 88.417969 326.421875 L 88.417969 325.382812 L 87.351562 325.382812 L 87.351562 324.34375 L 86.285156 324.34375 L 86.285156 323.304688 L 85.214844 323.304688 L 85.214844 322.265625 L 84.148438 322.265625 L 84.148438 321.226562 L 83.078125 321.226562 L 83.078125 320.1875 L 82.011719 320.1875 L 82.011719 319.148438 L 80.945312 319.148438 L 80.945312 318.109375 L 79.875 318.109375 L 79.875 317.070312 L 78.808594 317.070312 L 78.808594 316.03125 L 76.671875 316.03125 L 76.671875 314.992188 L 75.605469 314.992188 L 75.605469 313.953125 L 74.539062 313.953125 L 74.539062 312.914062 L 73.46875 312.914062 L 73.46875 311.875 L 72.402344 311.875 L 72.402344 310.835938 L 71.335938 310.835938 L 71.335938 309.796875 L 70.265625 309.796875 L 70.265625 307.71875 L 71.335938 307.71875 L 71.335938 306.679688 L 72.402344 306.679688 L 72.402344 305.640625 L 73.46875 305.640625 L 73.46875 304.601562 L 74.539062 304.601562 L 74.539062 303.558594 L 75.605469 303.558594 L 75.605469 302.519531 L 76.671875 302.519531 L 76.671875 301.484375 L 78.808594 301.484375 L 78.808594 300.441406 L 79.875 300.441406 L 79.875 299.402344 L 80.945312 299.402344 L 80.945312 298.363281 L 82.011719 298.363281 L 82.011719 297.324219 L 83.078125 297.324219 L 83.078125 296.285156 L 84.148438 296.285156 L 84.148438 295.246094 L 85.214844 295.246094 L 85.214844 294.207031 L 86.285156 294.207031 L 86.285156 293.167969 L 87.351562 293.167969 L 87.351562 292.128906 L 88.417969 292.128906 L 88.417969 291.089844 L 89.488281 291.089844 L 89.488281 290.050781 L 90.554688 290.050781 L 90.554688 289.011719 L 92.691406 289.011719 L 92.691406 287.972656 L 93.757812 287.972656 L 93.757812 286.933594 L 94.824219 286.933594 L 94.824219 285.894531 L 95.894531 285.894531 L 95.894531 284.855469 L 96.960938 284.855469 L 96.960938 283.816406 L 98.027344 283.816406 L 98.027344 282.777344 L 99.097656 282.777344 L 99.097656 281.738281 L 100.164062 281.738281 L 100.164062 280.699219 L 101.234375 280.699219 L 101.234375 279.660156 L 102.300781 279.660156 L 102.300781 278.621094 L 103.367188 278.621094 L 103.367188 277.582031 L 104.4375 277.582031 L 104.4375 276.542969 L 106.570312 276.542969 L 106.570312 275.503906 L 107.640625 275.503906 L 107.640625 274.464844 L 108.707031 274.464844 L 108.707031 273.425781 L 109.773438 273.425781 L 109.773438 272.386719 L 110.84375 272.386719 L 110.84375 271.347656 L 111.910156 271.347656 L 111.910156 270.308594 L 112.976562 270.308594 L 112.976562 269.269531 L 114.046875 269.269531 L 114.046875 268.230469 L 115.113281 268.230469 L 115.113281 267.191406 L 116.179688 267.191406 L 116.179688 266.152344 L 117.25 266.152344 L 117.25 265.113281 L 118.316406 265.113281 L 118.316406 264.074219 L 120.453125 264.074219 L 120.453125 263.03125 L 121.519531 263.03125 L 121.519531 261.996094 L 122.589844 261.996094 L 122.589844 260.957031 L 123.65625 260.957031 L 123.65625 259.914062 L 124.722656 259.914062 L 124.722656 258.878906 L 125.792969 258.878906 L 125.792969 257.835938 L 126.859375 257.835938 L 126.859375 256.796875 L 127.925781 256.796875 L 127.925781 255.757812 L 128.996094 255.757812 L 128.996094 254.71875 L 130.0625 254.71875 L 130.0625 253.679688 L 131.128906 253.679688 L 131.128906 252.640625 L 132.199219 252.640625 L 132.199219 251.601562 L 133.265625 251.601562 L 133.265625 250.5625 L 134.335938 250.5625 L 134.335938 249.523438 L 135.402344 249.523438 L 135.402344 248.484375 L 137.539062 248.484375 L 137.539062 247.445312 L 138.605469 247.445312 L 138.605469 246.40625 L 139.671875 246.40625 L 139.671875 245.367188 L 140.742188 245.367188 L 140.742188 244.328125 L 141.808594 244.328125 L 141.808594 243.289062 L 142.875 243.289062 L 142.875 242.25 L 143.945312 242.25 L 143.945312 241.210938 L 145.011719 241.210938 L 145.011719 240.171875 L 146.078125 240.171875 L 146.078125 239.132812 L 147.148438 239.132812 L 147.148438 238.09375 L 148.214844 238.09375 L 148.214844 237.054688 L 149.285156 237.054688 L 149.285156 236.015625 L 150.351562 236.015625 L 150.351562 234.976562 L 151.417969 234.976562 L 151.417969 233.9375 L 152.488281 233.9375 L 152.488281 232.898438 L 153.554688 232.898438 L 153.554688 231.859375 L 155.691406 231.859375 L 155.691406 230.820312 L 156.757812 230.820312 L 156.757812 229.78125 L 157.824219 229.78125 L 157.824219 228.742188 L 158.894531 228.742188 L 158.894531 227.703125 L 159.960938 227.703125 L 159.960938 226.664062 L 161.027344 226.664062 L 161.027344 225.621094 L 162.097656 225.621094 L 162.097656 224.585938 L 163.164062 224.585938 L 163.164062 223.546875 L 164.230469 223.546875 L 164.230469 222.503906 L 165.300781 222.503906 L 165.300781 221.46875 L 166.367188 221.46875 L 166.367188 219.386719 L 21.148438 219.386719 L 21.148438 218.351562 L 20.078125 218.351562 L 20.078125 214.191406 L 21.148438 214.191406 L 21.148438 184.058594 L 20.078125 184.058594 L 20.078125 183.019531 L 21.148438 183.019531 L 21.148438 181.980469 L 168.234375 181.980469 C 168.503906 182.066406 168.59375 181.980469 168.503906 181.71875 C 168.503906 180.765625 168.503906 180.160156 168.503906 179.898438 L 167.4375 179.898438 L 167.4375 178.859375 L 166.367188 178.859375 L 166.367188 177.820312 L 165.300781 177.820312 L 165.300781 176.78125 L 164.230469 176.78125 L 164.230469 175.742188 L 163.164062 175.742188 L 163.164062 174.703125 L 162.097656 174.703125 L 162.097656 173.664062 L 161.027344 173.664062 L 161.027344 172.625 L 159.960938 172.625 L 159.960938 171.585938 L 158.894531 171.585938 L 158.894531 170.546875 L 156.757812 170.546875 L 156.757812 169.507812 L 155.691406 169.507812 L 155.691406 168.46875 L 154.621094 168.46875 L 154.621094 167.429688 L 153.554688 167.429688 L 153.554688 166.390625 L 152.488281 166.390625 L 152.488281 165.351562 L 151.417969 165.351562 L 151.417969 164.3125 L 150.351562 164.3125 L 150.351562 163.273438 L 149.285156 163.273438 L 149.285156 162.234375 L 148.214844 162.234375 L 148.214844 161.195312 L 147.148438 161.195312 L 147.148438 160.15625 L 146.078125 160.15625 L 146.078125 159.117188 L 145.011719 159.117188 L 145.011719 158.078125 L 143.945312 158.078125 L 143.945312 157.039062 L 142.875 157.039062 L 142.875 156 L 141.808594 156 L 141.808594 154.960938 L 140.742188 154.960938 L 140.742188 153.921875 L 139.671875 153.921875 L 139.671875 152.882812 L 137.539062 152.882812 L 137.539062 151.84375 L 136.46875 151.84375 L 136.46875 150.804688 L 135.402344 150.804688 L 135.402344 149.765625 L 134.335938 149.765625 L 134.335938 148.726562 L 133.265625 148.726562 L 133.265625 147.6875 L 132.199219 147.6875 L 132.199219 146.648438 L 131.128906 146.648438 L 131.128906 145.609375 L 130.0625 145.609375 L 130.0625 144.570312 L 128.996094 144.570312 L 128.996094 143.53125 L 127.925781 143.53125 L 127.925781 142.488281 L 126.859375 142.488281 L 126.859375 141.453125 L 125.792969 141.453125 L 125.792969 140.414062 L 124.722656 140.414062 L 124.722656 139.371094 L 123.65625 139.371094 L 123.65625 138.335938 L 122.589844 138.335938 L 122.589844 137.292969 L 120.453125 137.292969 L 120.453125 136.253906 L 119.386719 136.253906 L 119.386719 135.21875 L 118.316406 135.21875 L 118.316406 134.175781 L 117.25 134.175781 L 117.25 133.136719 L 116.179688 133.136719 L 116.179688 132.097656 L 115.113281 132.097656 L 115.113281 131.058594 L 114.046875 131.058594 L 114.046875 130.019531 L 112.976562 130.019531 L 112.976562 128.980469 L 111.910156 128.980469 L 111.910156 127.941406 L 110.84375 127.941406 L 110.84375 126.902344 L 109.773438 126.902344 L 109.773438 125.863281 L 108.707031 125.863281 L 108.707031 124.824219 L 107.640625 124.824219 L 107.640625 123.785156 L 106.570312 123.785156 L 106.570312 122.746094 L 104.4375 122.746094 L 104.4375 121.707031 L 103.367188 121.707031 L 103.367188 120.667969 L 102.300781 120.667969 L 102.300781 119.628906 L 101.234375 119.628906 L 101.234375 118.589844 L 100.164062 118.589844 L 100.164062 117.550781 L 99.097656 117.550781 L 99.097656 116.511719 L 98.027344 116.511719 L 98.027344 115.472656 L 96.960938 115.472656 L 96.960938 114.433594 L 95.894531 114.433594 L 95.894531 113.394531 L 94.824219 113.394531 L 94.824219 112.355469 L 93.757812 112.355469 L 93.757812 111.316406 L 92.691406 111.316406 L 92.691406 110.277344 L 91.621094 110.277344 L 91.621094 109.238281 L 89.488281 109.238281 L 89.488281 108.199219 L 88.417969 108.199219 L 88.417969 107.160156 L 87.351562 107.160156 L 87.351562 106.121094 L 86.285156 106.121094 L 86.285156 105.082031 L 85.214844 105.082031 L 85.214844 104.042969 L 84.148438 104.042969 L 84.148438 103.003906 L 83.078125 103.003906 L 83.078125 101.960938 L 82.011719 101.960938 L 82.011719 100.925781 L 80.945312 100.925781 L 80.945312 99.882812 L 79.875 99.882812 L 79.875 98.84375 L 78.808594 98.84375 L 78.808594 97.808594 L 77.742188 97.808594 L 77.742188 96.765625 L 76.671875 96.765625 L 76.671875 95.726562 L 75.605469 95.726562 L 75.605469 94.6875 L 73.46875 94.6875 L 73.46875 91.570312 L 74.539062 91.570312 L 74.539062 90.53125 L 75.605469 90.53125 L 75.605469 89.492188 L 76.671875 89.492188 L 76.671875 88.453125 L 77.742188 88.453125 L 77.742188 87.414062 L 78.808594 87.414062 L 78.808594 86.375 L 79.875 86.375 L 79.875 85.335938 L 80.945312 85.335938 L 80.945312 84.296875 L 82.011719 84.296875 L 82.011719 83.257812 L 83.078125 83.257812 L 83.078125 82.21875 L 85.214844 82.21875 L 85.214844 81.179688 L 86.285156 81.179688 L 86.285156 80.140625 L 87.351562 80.140625 L 87.351562 79.101562 L 88.417969 79.101562 L 88.417969 78.0625 L 89.488281 78.0625 L 89.488281 77.023438 L 90.554688 77.023438 L 90.554688 75.984375 L 91.621094 75.984375 L 91.621094 74.945312 L 92.691406 74.945312 L 92.691406 73.90625 L 93.757812 73.90625 L 93.757812 72.867188 L 94.824219 72.867188 L 94.824219 71.828125 L 95.894531 71.828125 L 95.894531 70.789062 L 96.960938 70.789062 L 96.960938 69.75 L 98.027344 69.75 L 98.027344 68.710938 L 99.097656 68.710938 L 99.097656 67.671875 L 100.164062 67.671875 L 100.164062 66.632812 L 102.300781 66.632812 L 102.300781 67.671875 L 103.367188 67.671875 L 103.367188 68.710938 L 104.4375 68.710938 L 104.4375 69.75 L 105.503906 69.75 L 105.503906 70.789062 L 106.570312 70.789062 L 106.570312 71.828125 L 107.640625 71.828125 L 107.640625 72.867188 L 108.707031 72.867188 L 108.707031 73.90625 L 109.773438 73.90625 L 109.773438 74.945312 L 110.84375 74.945312 L 110.84375 75.984375 L 111.910156 75.984375 L 111.910156 77.023438 L 112.976562 77.023438 L 112.976562 78.0625 L 114.046875 78.0625 L 114.046875 79.101562 L 115.113281 79.101562 L 115.113281 80.140625 L 116.179688 80.140625 L 116.179688 81.179688 L 118.316406 81.179688 L 118.316406 82.21875 L 119.386719 82.21875 L 119.386719 83.257812 L 120.453125 83.257812 L 120.453125 84.296875 L 121.519531 84.296875 L 121.519531 85.335938 L 122.589844 85.335938 L 122.589844 86.375 L 123.65625 86.375 L 123.65625 87.414062 L 124.722656 87.414062 L 124.722656 88.453125 L 125.792969 88.453125 L 125.792969 89.492188 L 126.859375 89.492188 L 126.859375 90.53125 L 127.925781 90.53125 L 127.925781 91.570312 L 128.996094 91.570312 L 128.996094 92.609375 L 130.0625 92.609375 L 130.0625 93.648438 L 131.128906 93.648438 L 131.128906 94.6875 L 132.199219 94.6875 L 132.199219 95.726562 L 133.265625 95.726562 L 133.265625 96.765625 L 134.335938 96.765625 L 134.335938 97.808594 L 135.402344 97.808594 L 135.402344 98.84375 L 137.539062 98.84375 L 137.539062 99.882812 L 138.605469 99.882812 L 138.605469 100.925781 L 139.671875 100.925781 L 139.671875 101.960938 L 140.742188 101.960938 L 140.742188 103.003906 L 141.808594 103.003906 L 141.808594 104.042969 L 142.875 104.042969 L 142.875 105.082031 L 143.945312 105.082031 L 143.945312 106.121094 L 145.011719 106.121094 L 145.011719 107.160156 L 146.078125 107.160156 L 146.078125 108.199219 L 147.148438 108.199219 L 147.148438 109.238281 L 148.214844 109.238281 L 148.214844 110.277344 L 149.285156 110.277344 L 149.285156 111.316406 L 150.351562 111.316406 L 150.351562 112.355469 L 151.417969 112.355469 L 151.417969 113.394531 L 152.488281 113.394531 L 152.488281 114.433594 L 153.554688 114.433594 L 153.554688 115.472656 L 154.621094 115.472656 L 154.621094 116.511719 L 155.691406 116.511719 L 155.691406 117.550781 L 156.757812 117.550781 L 156.757812 118.589844 L 157.824219 118.589844 L 157.824219 119.628906 L 158.894531 119.628906 L 158.894531 120.667969 L 159.960938 120.667969 L 159.960938 121.707031 L 161.027344 121.707031 L 161.027344 122.746094 L 163.164062 122.746094 L 163.164062 123.785156 L 164.230469 123.785156 L 164.230469 124.824219 L 165.300781 124.824219 L 165.300781 125.863281 L 166.367188 125.863281 L 166.367188 126.902344 L 167.4375 126.902344 L 167.4375 127.941406 L 168.503906 127.941406 L 168.503906 128.980469 L 169.570312 128.980469 L 169.570312 130.019531 L 170.640625 130.019531 L 170.640625 131.058594 L 171.707031 131.058594 L 171.707031 132.097656 L 172.773438 132.097656 L 172.773438 133.136719 L 173.839844 133.136719 L 173.839844 134.175781 L 174.910156 134.175781 L 174.910156 135.21875 L 175.976562 135.21875 L 175.976562 136.253906 L 177.046875 136.253906 L 177.046875 137.292969 L 178.113281 137.292969 L 178.113281 138.335938 L 179.179688 138.335938 L 179.179688 139.371094 L 180.25 139.371094 L 180.25 140.414062 L 181.316406 140.414062 L 181.316406 141.453125 L 182.386719 141.453125 L 182.386719 142.488281 L 183.453125 142.488281 L 183.453125 143.53125 L 184.519531 143.53125 L 184.519531 144.570312 L 185.589844 144.570312 L 185.589844 145.609375 L 187.722656 145.609375 L 187.722656 146.648438 L 188.792969 146.648438 L 188.792969 147.6875 L 189.859375 147.6875 L 189.859375 148.726562 L 190.925781 148.726562 L 190.925781 149.765625 L 191.996094 149.765625 L 191.996094 150.804688 L 193.0625 150.804688 L 193.0625 151.84375 L 194.128906 151.84375 L 194.128906 152.882812 L 195.199219 152.882812 L 195.199219 153.921875 L 196.265625 153.921875 L 196.265625 154.960938 L 197.335938 154.960938 L 197.335938 156 L 198.402344 156 Z M 198.402344 24.027344 " clip-rule="nonzero"/></clipPath><radialGradient gradientTransform="matrix(-1.400537, 1.323561, 0.0515649, 0.0516769, 220.825468, 195.487207)" gradientUnits="userSpaceOnUse" r="92.252733" cx="0" id="84409ef71f" cy="0" fx="0" fy="0"><stop stop-opacity="1" stop-color="rgb(98.770142%, 27.790833%, 3.039551%)" offset="0"/><stop stop-opacity="1" stop-color="rgb(98.648071%, 27.668762%, 2.793884%)" offset="0.25"/><stop stop-opacity="1" stop-color="rgb(98.501587%, 27.522278%, 2.497864%)" offset="0.625"/><stop stop-opacity="1" stop-color="rgb(98.429871%, 27.449036%, 2.349854%)" offset="1"/></radialGradient><clipPath id="c8d5d94a06"><path d="M 1047 279 L 1109 279 L 1109 341 L 1047 341 Z M 1047 279 " clip-rule="nonzero"/></clipPath><clipPath id="c00663eb7e"><path d="M 1073.996094 279.660156 L 1079.332031 279.660156 L 1079.332031 280.699219 L 1080.402344 280.699219 L 1080.402344 279.660156 L 1081.472656 279.660156 L 1081.472656 280.699219 L 1082.535156 280.699219 L 1082.535156 299.402344 L 1083.605469 299.402344 L 1083.605469 298.363281 L 1084.675781 298.363281 L 1084.675781 297.324219 L 1085.738281 297.324219 L 1085.738281 296.285156 L 1086.808594 296.285156 L 1086.808594 295.246094 L 1087.878906 295.246094 L 1087.878906 294.207031 L 1088.941406 294.207031 L 1088.941406 293.167969 L 1090.011719 293.167969 L 1090.011719 292.128906 L 1091.082031 292.128906 L 1091.082031 291.089844 L 1092.144531 291.089844 L 1092.144531 290.050781 L 1093.214844 290.050781 L 1093.214844 289.011719 L 1094.289062 289.011719 L 1094.289062 287.972656 L 1095.347656 287.972656 L 1095.347656 286.933594 L 1096.417969 286.933594 L 1096.417969 287.972656 L 1097.492188 287.972656 L 1097.492188 289.011719 L 1098.550781 289.011719 L 1098.550781 290.050781 L 1099.621094 290.050781 L 1099.621094 291.089844 L 1100.695312 291.089844 L 1100.695312 294.207031 L 1099.621094 294.207031 L 1099.621094 295.246094 L 1098.550781 295.246094 L 1098.550781 296.285156 L 1097.492188 296.285156 L 1097.492188 297.324219 L 1096.417969 297.324219 L 1096.417969 298.363281 L 1095.347656 298.363281 L 1095.347656 299.402344 L 1094.289062 299.402344 L 1094.289062 300.441406 L 1093.214844 300.441406 L 1093.214844 301.484375 L 1092.144531 301.484375 L 1092.144531 302.519531 L 1091.082031 302.519531 L 1091.082031 303.558594 L 1090.011719 303.558594 L 1090.011719 304.601562 L 1088.941406 304.601562 L 1088.941406 305.640625 L 1090.011719 305.640625 L 1090.011719 306.679688 L 1108.160156 306.679688 L 1108.160156 314.992188 L 1090.273438 314.992188 C 1090.011719 314.90625 1089.925781 314.992188 1090.011719 315.25 C 1090.011719 316.203125 1090.011719 316.808594 1090.011719 317.070312 L 1091.082031 317.070312 L 1091.082031 318.109375 L 1092.144531 318.109375 L 1092.144531 319.148438 L 1093.214844 319.148438 L 1093.214844 320.1875 L 1094.289062 320.1875 L 1094.289062 321.226562 L 1095.347656 321.226562 L 1095.347656 322.265625 L 1096.417969 322.265625 L 1096.417969 323.304688 L 1097.492188 323.304688 L 1097.492188 324.34375 L 1098.550781 324.34375 L 1098.550781 325.382812 L 1099.621094 325.382812 C 1099.621094 325.644531 1099.621094 326.25 1099.621094 327.203125 L 1099.621094 327.460938 L 1100.695312 327.460938 L 1100.695312 329.539062 L 1099.621094 329.539062 L 1099.621094 330.578125 L 1098.550781 330.578125 L 1098.550781 331.617188 L 1097.492188 331.617188 L 1097.492188 332.65625 L 1096.417969 332.65625 L 1096.417969 333.695312 L 1094.289062 333.695312 L 1094.289062 332.65625 L 1093.214844 332.65625 L 1093.214844 331.617188 L 1092.144531 331.617188 L 1092.144531 330.578125 L 1091.082031 330.578125 L 1091.082031 329.539062 L 1090.011719 329.539062 L 1090.011719 328.5 L 1088.941406 328.5 L 1088.941406 327.460938 L 1087.878906 327.460938 L 1087.878906 326.421875 L 1086.808594 326.421875 L 1086.808594 325.382812 L 1085.738281 325.382812 L 1085.738281 324.34375 L 1084.675781 324.34375 L 1084.675781 323.304688 L 1083.605469 323.304688 L 1083.605469 322.265625 L 1082.535156 322.265625 L 1082.535156 340.96875 L 1072.921875 340.96875 L 1072.921875 322.523438 C 1073.011719 322.265625 1072.921875 322.179688 1072.660156 322.265625 C 1071.675781 322.265625 1071.054688 322.265625 1070.792969 322.265625 L 1070.792969 324.34375 L 1069.71875 324.34375 L 1069.71875 325.382812 L 1068.660156 325.382812 L 1068.660156 326.421875 L 1067.589844 326.421875 L 1067.589844 327.460938 L 1066.515625 327.460938 L 1066.515625 328.5 L 1065.457031 328.5 L 1065.457031 329.539062 L 1064.382812 329.539062 L 1064.382812 330.578125 L 1063.3125 330.578125 L 1063.3125 331.617188 L 1062.253906 331.617188 L 1062.253906 332.65625 L 1061.179688 332.65625 L 1061.179688 333.695312 L 1059.050781 333.695312 L 1059.050781 332.65625 L 1057.976562 332.65625 L 1057.976562 331.617188 L 1056.90625 331.617188 L 1056.90625 330.578125 L 1055.84375 330.578125 L 1055.84375 329.539062 L 1054.773438 329.539062 L 1054.773438 326.421875 L 1056.90625 326.421875 L 1056.90625 324.34375 L 1057.976562 324.34375 L 1057.976562 323.304688 L 1059.050781 323.304688 L 1059.050781 322.265625 L 1060.109375 322.265625 L 1060.109375 321.226562 L 1061.179688 321.226562 L 1061.179688 320.1875 L 1062.253906 320.1875 L 1062.253906 319.148438 L 1064.382812 319.148438 L 1064.382812 318.109375 L 1065.457031 318.109375 L 1065.457031 317.070312 L 1066.515625 317.070312 L 1066.515625 314.992188 L 1047.296875 314.992188 L 1047.296875 306.679688 L 1065.457031 306.679688 L 1065.457031 305.640625 L 1066.515625 305.640625 L 1066.515625 304.601562 L 1064.382812 304.601562 L 1064.382812 303.558594 L 1063.3125 303.558594 L 1063.3125 302.519531 L 1062.253906 302.519531 L 1062.253906 301.484375 L 1061.179688 301.484375 L 1061.179688 300.441406 L 1060.109375 300.441406 L 1060.109375 299.402344 L 1059.050781 299.402344 L 1059.050781 298.363281 L 1057.976562 298.363281 L 1057.976562 297.324219 L 1056.90625 297.324219 L 1056.90625 295.246094 L 1055.84375 295.246094 L 1055.84375 294.207031 L 1054.773438 294.207031 L 1054.773438 291.089844 L 1055.84375 291.089844 L 1055.84375 290.050781 L 1056.90625 290.050781 L 1056.90625 289.011719 L 1057.976562 289.011719 L 1057.976562 287.972656 L 1061.179688 287.972656 L 1061.179688 289.011719 L 1062.253906 289.011719 L 1062.253906 290.050781 L 1063.3125 290.050781 L 1063.3125 291.089844 L 1064.382812 291.089844 L 1064.382812 292.128906 L 1065.457031 292.128906 L 1065.457031 293.167969 L 1066.515625 293.167969 L 1066.515625 294.207031 L 1067.589844 294.207031 L 1067.589844 295.246094 L 1068.660156 295.246094 L 1068.660156 296.285156 L 1069.71875 296.285156 L 1069.71875 297.324219 L 1070.792969 297.324219 L 1070.792969 299.402344 L 1072.921875 299.402344 L 1072.921875 280.699219 L 1073.996094 280.699219 Z M 1073.996094 279.660156 " clip-rule="nonzero"/></clipPath><radialGradient gradientTransform="matrix(-0.724164, -0.714143, 0.708945, -0.680856, 1099.086873, 330.578629)" gradientUnits="userSpaceOnUse" r="55.294486" cx="0" id="e94774b14c" cy="0" fx="0" fy="0"><stop stop-opacity="1" stop-color="rgb(98.051453%, 30.11322%, 7.667542%)" offset="0"/><stop stop-opacity="1" stop-color="rgb(98.074341%, 29.946899%, 7.3349%)" offset="0.0625"/><stop stop-opacity="1" stop-color="rgb(98.097229%, 29.79126%, 7.023621%)" offset="0.121094"/><stop stop-opacity="1" stop-color="rgb(98.117065%, 29.646301%, 6.733704%)" offset="0.175781"/><stop stop-opacity="1" stop-color="rgb(98.136902%, 29.512024%, 6.466675%)" offset="0.226562"/><stop stop-opacity="1" stop-color="rgb(98.153687%, 29.388428%, 6.219482%)" offset="0.273438"/><stop stop-opacity="1" stop-color="rgb(98.170471%, 29.275513%, 5.995178%)" offset="0.316406"/><stop stop-opacity="1" stop-color="rgb(98.18573%, 29.167175%, 5.780029%)" offset="0.355469"/><stop stop-opacity="1" stop-color="rgb(98.199463%, 29.064941%, 5.577087%)" offset="0.394531"/><stop stop-opacity="1" stop-color="rgb(98.220825%, 28.919983%, 5.28717%)" offset="0.429688"/><stop stop-opacity="1" stop-color="rgb(98.246765%, 28.738403%, 4.922485%)" offset="0.5"/><stop stop-opacity="1" stop-color="rgb(98.269653%, 28.57666%, 4.600525%)" offset="0.5625"/><stop stop-opacity="1" stop-color="rgb(98.28949%, 28.437805%, 4.321289%)" offset="0.617188"/><stop stop-opacity="1" stop-color="rgb(98.306274%, 28.318787%, 4.086304%)" offset="0.664062"/><stop stop-opacity="1" stop-color="rgb(98.320007%, 28.216553%, 3.881836%)" offset="0.703125"/><stop stop-opacity="1" stop-color="rgb(98.339844%, 28.082275%, 3.613281%)" offset="0.738281"/><stop stop-opacity="1" stop-color="rgb(98.361206%, 27.932739%, 3.314209%)" offset="0.800781"/><stop stop-opacity="1" stop-color="rgb(98.376465%, 27.819824%, 3.088379%)" offset="0.847656"/><stop stop-opacity="1" stop-color="rgb(98.394775%, 27.690125%, 2.830505%)" offset="0.882812"/><stop stop-opacity="1" stop-color="rgb(98.417664%, 27.529907%, 2.510071%)" offset="0.941406"/><stop stop-opacity="1" stop-color="rgb(98.429871%, 27.449036%, 2.349854%)" offset="1"/></radialGradient></defs><g clip-path="url(#0abb100f2d)"><g clip-path="url(#84f34d576a)"><path fill="url(#84409ef71f)" d="M 134.9375 -84.519531 L 418.871094 200.027344 L 128.390625 474.542969 L -155.542969 189.996094 Z M 134.9375 -84.519531 " fill-rule="nonzero"/></g></g><path fill="#e9e7e8" d="M 493.113281 88.453125 L 517.671875 88.453125 L 517.671875 89.492188 L 521.941406 89.492188 L 521.941406 90.53125 L 526.214844 90.53125 L 526.214844 91.570312 L 530.484375 91.570312 L 530.484375 92.609375 L 532.621094 92.609375 L 532.621094 93.648438 L 535.824219 93.648438 L 535.824219 94.6875 L 537.960938 94.6875 L 537.960938 95.726562 L 539.027344 95.726562 L 539.027344 96.765625 L 541.164062 96.765625 L 541.164062 97.808594 L 543.300781 97.808594 L 543.300781 98.84375 L 544.367188 98.84375 L 544.367188 99.882812 L 546.503906 99.882812 L 546.503906 100.925781 L 547.570312 100.925781 L 547.570312 101.960938 L 548.636719 101.960938 L 548.636719 103.003906 L 549.707031 103.003906 L 549.707031 104.042969 L 550.773438 104.042969 L 550.773438 105.082031 L 551.839844 105.082031 L 551.839844 106.121094 L 552.910156 106.121094 L 552.910156 107.160156 L 553.976562 107.160156 L 553.976562 108.199219 L 555.046875 108.199219 L 555.046875 109.238281 L 556.113281 109.238281 L 556.113281 111.316406 L 557.179688 111.316406 L 557.179688 112.355469 L 558.25 112.355469 L 558.25 114.433594 L 559.316406 114.433594 L 559.316406 116.511719 L 560.382812 116.511719 L 560.382812 118.589844 L 561.453125 118.589844 L 561.453125 120.667969 L 562.519531 120.667969 L 562.519531 123.785156 L 563.585938 123.785156 L 563.585938 125.863281 L 564.65625 125.863281 L 564.65625 130.019531 L 565.722656 130.019531 L 565.722656 135.21875 L 566.789062 135.21875 L 566.789062 143.53125 L 567.859375 143.53125 L 567.859375 280.699219 L 566.789062 280.699219 L 566.789062 290.050781 L 565.722656 290.050781 L 565.722656 295.246094 L 564.65625 295.246094 L 564.65625 299.402344 L 563.585938 299.402344 L 563.585938 302.519531 L 562.519531 302.519531 L 562.519531 304.601562 L 561.453125 304.601562 L 561.453125 306.679688 L 560.382812 306.679688 L 560.382812 308.757812 L 559.316406 308.757812 C 559.316406 309.015625 559.316406 309.621094 559.316406 310.574219 L 559.316406 310.835938 L 558.25 310.835938 L 558.25 312.914062 L 557.179688 312.914062 L 557.179688 313.953125 L 556.113281 313.953125 L 556.113281 316.03125 L 555.046875 316.03125 L 555.046875 317.070312 L 553.976562 317.070312 L 553.976562 318.109375 L 552.910156 318.109375 L 552.910156 319.148438 L 551.839844 319.148438 L 551.839844 320.1875 L 550.773438 320.1875 L 550.773438 321.226562 L 549.707031 321.226562 L 549.707031 322.265625 L 548.636719 322.265625 L 548.636719 323.304688 L 547.570312 323.304688 L 547.570312 324.34375 L 546.503906 324.34375 L 546.503906 325.382812 L 545.433594 325.382812 L 545.433594 326.421875 L 543.300781 326.421875 L 543.300781 327.460938 L 542.230469 327.460938 L 542.230469 328.5 L 540.097656 328.5 L 540.097656 329.539062 L 537.960938 329.539062 L 537.960938 330.578125 L 535.824219 330.578125 L 535.824219 331.617188 L 533.6875 331.617188 L 533.6875 332.65625 L 530.484375 332.65625 L 530.484375 333.695312 L 527.28125 333.695312 L 527.28125 334.734375 L 524.078125 334.734375 L 524.078125 335.773438 L 518.738281 335.773438 L 518.738281 336.8125 L 490.976562 336.8125 L 490.976562 335.773438 L 485.636719 335.773438 L 485.636719 334.734375 L 482.433594 334.734375 L 482.433594 333.695312 L 479.230469 333.695312 L 479.230469 332.65625 L 476.027344 332.65625 L 476.027344 331.617188 C 475.761719 331.617188 475.140625 331.617188 474.160156 331.617188 L 473.890625 331.617188 L 473.890625 330.578125 L 471.757812 330.578125 L 471.757812 329.539062 L 470.6875 329.539062 L 470.6875 328.5 C 470.421875 328.5 469.800781 328.5 468.820312 328.5 L 468.554688 328.5 L 468.554688 327.460938 L 466.417969 327.460938 L 466.417969 326.421875 L 465.351562 326.421875 L 465.351562 325.382812 L 463.214844 325.382812 L 463.214844 324.34375 L 462.148438 324.34375 L 462.148438 323.304688 L 461.078125 323.304688 L 461.078125 322.265625 L 460.011719 322.265625 L 460.011719 321.226562 L 458.941406 321.226562 L 458.941406 320.1875 L 457.875 320.1875 L 457.875 319.148438 L 456.808594 319.148438 L 456.808594 317.070312 L 455.738281 317.070312 L 455.738281 316.03125 L 454.671875 316.03125 L 454.671875 314.992188 L 453.605469 314.992188 L 453.605469 313.953125 L 452.535156 313.953125 L 452.535156 311.875 L 451.46875 311.875 L 451.46875 309.796875 L 450.402344 309.796875 L 450.402344 307.71875 L 449.332031 307.71875 L 449.332031 305.640625 L 448.265625 305.640625 L 448.265625 302.519531 L 447.199219 302.519531 L 447.199219 299.402344 L 446.128906 299.402344 L 446.128906 296.285156 L 445.0625 296.285156 L 445.0625 292.128906 L 443.996094 292.128906 L 443.996094 283.816406 L 442.925781 283.816406 L 442.925781 139.371094 L 443.996094 139.371094 L 443.996094 133.136719 L 445.0625 133.136719 L 445.0625 128.980469 L 446.128906 128.980469 L 446.128906 124.824219 L 447.199219 124.824219 L 447.199219 121.707031 L 448.265625 121.707031 L 448.265625 119.628906 L 449.332031 119.628906 L 449.332031 116.511719 L 450.402344 116.511719 L 450.402344 114.433594 L 451.46875 114.433594 L 451.46875 113.394531 L 452.535156 113.394531 L 452.535156 111.316406 L 453.605469 111.316406 L 453.605469 110.277344 L 454.671875 110.277344 L 454.671875 108.199219 L 455.738281 108.199219 L 455.738281 107.160156 L 456.808594 107.160156 L 456.808594 106.121094 L 457.875 106.121094 L 457.875 105.082031 L 458.941406 105.082031 L 458.941406 104.042969 L 460.011719 104.042969 L 460.011719 103.003906 L 461.078125 103.003906 L 461.078125 101.960938 L 462.148438 101.960938 L 462.148438 100.925781 L 463.214844 100.925781 L 463.214844 99.882812 L 465.351562 99.882812 L 465.351562 98.84375 L 466.417969 98.84375 L 466.417969 97.808594 L 468.554688 97.808594 L 468.554688 96.765625 L 470.6875 96.765625 L 470.6875 95.726562 L 472.824219 95.726562 L 472.824219 94.6875 L 474.960938 94.6875 L 474.960938 93.648438 L 477.097656 93.648438 L 477.097656 92.609375 L 480.300781 92.609375 L 480.300781 91.570312 L 483.503906 91.570312 L 483.503906 90.53125 L 487.773438 90.53125 L 487.773438 89.492188 L 493.113281 89.492188 Z M 498.453125 126.902344 L 498.453125 127.941406 L 496.316406 127.941406 L 496.316406 128.980469 L 494.179688 128.980469 L 494.179688 130.019531 L 493.113281 130.019531 L 493.113281 131.058594 L 490.976562 131.058594 L 490.976562 133.136719 L 489.910156 133.136719 L 489.910156 134.175781 L 488.839844 134.175781 L 488.839844 136.253906 L 487.773438 136.253906 L 487.773438 136.773438 C 487.773438 137.46875 487.773438 137.988281 487.773438 138.335938 L 486.707031 138.335938 L 486.707031 142.488281 L 485.636719 142.488281 L 485.636719 282.777344 L 486.707031 282.777344 L 486.707031 286.933594 L 487.773438 286.933594 L 487.773438 289.011719 L 488.839844 289.011719 L 488.839844 291.089844 L 489.910156 291.089844 L 489.910156 292.128906 L 490.976562 292.128906 L 490.976562 294.207031 L 492.046875 294.207031 L 492.046875 295.246094 L 494.179688 295.246094 L 494.179688 296.285156 L 495.25 296.285156 L 495.25 297.324219 L 497.382812 297.324219 L 497.382812 298.363281 L 500.585938 298.363281 L 500.585938 299.402344 L 509.128906 299.402344 L 509.128906 298.363281 L 513.402344 298.363281 L 513.402344 297.324219 L 515.535156 297.324219 L 515.535156 296.285156 L 517.671875 296.285156 L 517.671875 295.246094 L 518.738281 295.246094 L 518.738281 294.207031 L 519.808594 294.207031 L 519.808594 292.128906 L 520.875 292.128906 L 520.875 291.089844 L 521.941406 291.089844 L 521.941406 289.011719 L 523.011719 289.011719 L 523.011719 285.894531 L 524.078125 285.894531 L 524.078125 282.777344 L 525.148438 282.777344 L 525.148438 281.738281 L 524.078125 281.738281 L 524.078125 280.699219 L 525.148438 280.699219 L 525.148438 143.53125 L 524.078125 143.53125 L 524.078125 139.371094 L 523.011719 139.371094 L 523.011719 136.253906 L 521.941406 136.253906 L 521.941406 134.175781 L 520.875 134.175781 L 520.875 133.136719 L 519.808594 133.136719 L 519.808594 132.097656 L 518.738281 132.097656 L 518.738281 131.058594 L 517.671875 131.058594 L 517.671875 130.019531 L 516.605469 130.019531 L 516.605469 128.980469 L 514.46875 128.980469 L 514.46875 127.941406 L 512.335938 127.941406 L 512.335938 126.902344 Z M 498.453125 126.902344 " fill-opacity="0.976" fill-rule="nonzero"/><path fill="#e9e7e8" d="M 289.164062 91.570312 L 366.046875 91.570312 L 366.046875 92.609375 L 373.519531 92.609375 L 373.519531 93.648438 L 376.722656 93.648438 L 376.722656 94.6875 L 380.996094 94.6875 L 380.996094 95.726562 L 383.128906 95.726562 L 383.128906 96.765625 L 386.335938 96.765625 L 386.335938 97.808594 C 386.601562 97.808594 387.222656 97.808594 388.203125 97.808594 L 388.46875 97.808594 L 388.46875 98.84375 L 390.605469 98.84375 L 390.605469 99.882812 L 391.671875 99.882812 L 391.671875 100.925781 L 392.738281 100.925781 L 392.738281 101.960938 L 394.875 101.960938 L 394.875 103.003906 L 395.941406 103.003906 L 395.941406 104.042969 L 397.011719 104.042969 L 397.011719 105.082031 L 398.078125 105.082031 L 398.078125 106.121094 L 399.148438 106.121094 L 399.148438 107.160156 L 400.214844 107.160156 L 400.214844 108.199219 L 401.28125 108.199219 L 401.28125 109.238281 L 402.351562 109.238281 L 402.351562 111.316406 L 403.417969 111.316406 L 403.417969 112.355469 L 404.488281 112.355469 L 404.488281 114.433594 L 405.554688 114.433594 L 405.554688 115.472656 L 406.621094 115.472656 L 406.621094 117.550781 L 407.6875 117.550781 L 407.6875 120.667969 L 408.757812 120.667969 L 408.757812 123.785156 L 409.824219 123.785156 L 409.824219 126.902344 L 410.890625 126.902344 L 410.890625 132.097656 L 411.960938 132.097656 L 411.960938 184.058594 L 410.890625 184.058594 L 410.890625 189.253906 L 409.824219 189.253906 L 409.824219 193.410156 L 408.757812 193.410156 L 408.757812 195.488281 L 407.6875 195.488281 L 407.6875 198.605469 L 406.621094 198.605469 L 406.621094 199.644531 L 405.554688 199.644531 C 405.554688 199.90625 405.554688 200.511719 405.554688 201.460938 L 405.554688 201.722656 L 404.488281 201.722656 L 404.488281 203.800781 L 403.417969 203.800781 L 403.417969 204.839844 L 402.351562 204.839844 L 402.351562 205.878906 L 401.28125 205.878906 L 401.28125 206.917969 L 400.214844 206.917969 L 400.214844 207.957031 L 399.148438 207.957031 L 399.148438 208.996094 L 398.078125 208.996094 L 398.078125 210.035156 L 397.011719 210.035156 L 397.011719 211.074219 L 395.941406 211.074219 L 395.941406 212.113281 L 394.875 212.113281 L 394.875 213.152344 L 392.738281 213.152344 L 392.738281 214.191406 L 391.671875 214.191406 L 391.671875 215.230469 L 389.539062 215.230469 L 389.539062 216.269531 L 388.46875 216.269531 L 388.46875 218.351562 L 390.605469 218.351562 L 390.605469 219.386719 C 390.871094 219.386719 391.496094 219.386719 392.472656 219.386719 L 392.738281 219.386719 L 392.738281 220.425781 L 394.875 220.425781 L 394.875 221.46875 L 395.941406 221.46875 L 395.941406 222.503906 L 398.078125 222.503906 L 398.078125 223.546875 L 399.148438 223.546875 L 399.148438 224.585938 L 400.214844 224.585938 L 400.214844 225.621094 L 401.28125 225.621094 L 401.28125 226.664062 L 402.351562 226.664062 L 402.351562 228.742188 L 403.417969 228.742188 L 403.417969 229.78125 L 404.488281 229.78125 L 404.488281 231.859375 L 405.554688 231.859375 L 405.554688 232.898438 L 406.621094 232.898438 L 406.621094 234.976562 L 407.6875 234.976562 L 407.6875 237.054688 L 408.757812 237.054688 L 408.757812 240.171875 L 409.824219 240.171875 L 409.824219 244.328125 L 410.890625 244.328125 L 410.890625 249.523438 L 411.960938 249.523438 L 411.960938 306.679688 L 413.027344 306.679688 L 413.027344 317.070312 L 414.097656 317.070312 L 414.097656 322.265625 L 415.164062 322.265625 L 415.164062 326.421875 L 416.230469 326.421875 L 416.230469 329.539062 L 417.300781 329.539062 L 417.300781 332.65625 L 418.367188 332.65625 L 418.367188 333.695312 L 374.585938 333.695312 L 374.585938 332.65625 L 373.519531 332.65625 L 373.519531 327.460938 L 372.453125 327.460938 L 372.453125 322.265625 L 371.386719 322.265625 L 371.386719 310.835938 L 370.316406 310.835938 L 370.316406 252.640625 L 369.25 252.640625 L 369.25 249.523438 L 368.179688 249.523438 L 368.179688 246.40625 L 367.113281 246.40625 L 367.113281 245.367188 L 366.046875 245.367188 L 366.046875 243.289062 L 364.976562 243.289062 L 364.976562 242.25 L 363.910156 242.25 L 363.910156 241.210938 L 362.839844 241.210938 L 362.839844 240.171875 L 361.773438 240.171875 L 361.773438 239.132812 L 359.636719 239.132812 L 359.636719 238.09375 L 356.4375 238.09375 L 356.4375 237.054688 L 352.164062 237.054688 L 352.164062 236.015625 L 331.875 236.015625 L 331.875 237.054688 L 330.808594 237.054688 L 330.808594 333.695312 L 289.164062 333.695312 Z M 330.808594 128.980469 L 330.808594 199.644531 L 357.503906 199.644531 L 357.503906 198.605469 L 360.707031 198.605469 L 360.707031 197.566406 L 362.839844 197.566406 L 362.839844 196.527344 L 363.910156 196.527344 L 363.910156 195.488281 L 364.976562 195.488281 L 364.976562 194.449219 L 366.046875 194.449219 L 366.046875 192.371094 L 367.113281 192.371094 L 367.113281 191.332031 L 368.179688 191.332031 L 368.179688 189.253906 L 369.25 189.253906 L 369.25 186.136719 L 370.316406 186.136719 L 370.316406 141.453125 L 369.25 141.453125 L 369.25 138.335938 L 368.179688 138.335938 L 368.179688 136.253906 L 367.113281 136.253906 L 367.113281 135.21875 L 366.046875 135.21875 L 366.046875 134.175781 L 364.976562 134.175781 L 364.976562 133.136719 L 363.910156 133.136719 L 363.910156 132.097656 L 362.839844 132.097656 L 362.839844 131.058594 L 360.707031 131.058594 L 360.707031 130.019531 L 356.4375 130.019531 L 356.4375 128.980469 Z M 330.808594 128.980469 " fill-opacity="0.976" fill-rule="nonzero"/><path fill="#e9e7e8" d="M 586.011719 91.570312 L 629.523438 91.570312 C 629.789062 91.484375 629.878906 91.570312 629.789062 91.832031 C 629.789062 92.785156 629.789062 93.390625 629.789062 93.648438 L 630.859375 93.648438 L 630.859375 98.84375 L 631.925781 98.84375 L 631.925781 106.121094 L 632.992188 106.121094 L 632.992188 112.355469 L 634.0625 112.355469 L 634.0625 119.628906 L 635.128906 119.628906 L 635.128906 125.863281 L 636.199219 125.863281 L 636.199219 133.136719 L 637.265625 133.136719 L 637.265625 139.371094 L 638.332031 139.371094 L 638.332031 146.648438 L 639.402344 146.648438 L 639.402344 153.921875 L 640.46875 153.921875 L 640.46875 160.15625 L 641.535156 160.15625 L 641.535156 164.3125 L 642.605469 164.3125 L 642.605469 171.585938 L 643.671875 171.585938 L 643.671875 178.859375 L 644.738281 178.859375 L 644.738281 185.097656 L 645.808594 185.097656 L 645.808594 191.332031 L 646.875 191.332031 L 646.875 197.566406 L 647.941406 197.566406 L 647.941406 203.800781 L 649.011719 203.800781 L 649.011719 211.074219 L 650.078125 211.074219 L 650.078125 217.308594 L 651.148438 217.308594 L 651.148438 224.585938 L 652.214844 224.585938 L 652.214844 230.820312 L 653.28125 230.820312 L 653.28125 237.054688 L 654.351562 237.054688 L 654.351562 238.09375 L 653.28125 238.09375 L 653.28125 239.132812 L 654.351562 239.132812 L 654.351562 244.328125 L 655.417969 244.328125 L 655.417969 251.601562 L 656.484375 251.601562 L 656.484375 257.835938 L 657.554688 257.835938 L 657.554688 266.152344 L 658.621094 266.152344 L 658.621094 272.386719 L 659.6875 272.386719 L 659.6875 273.425781 L 660.757812 273.425781 L 660.757812 266.152344 L 661.824219 266.152344 L 661.824219 258.878906 L 662.890625 258.878906 L 662.890625 252.640625 L 663.960938 252.640625 L 663.960938 245.367188 L 665.027344 245.367188 L 665.027344 238.09375 L 666.097656 238.09375 L 666.097656 231.859375 L 667.164062 231.859375 L 667.164062 224.585938 L 668.230469 224.585938 L 668.230469 218.351562 L 669.300781 218.351562 L 669.300781 212.113281 L 670.367188 212.113281 L 670.367188 204.839844 L 671.433594 204.839844 L 671.433594 197.566406 L 672.503906 197.566406 L 672.503906 190.292969 L 673.570312 190.292969 L 673.570312 183.019531 L 674.636719 183.019531 L 674.636719 175.742188 L 675.707031 175.742188 L 675.707031 169.507812 L 676.773438 169.507812 L 676.773438 163.273438 L 677.839844 163.273438 L 677.839844 157.039062 L 678.910156 157.039062 L 678.910156 149.765625 L 679.976562 149.765625 L 679.976562 143.53125 L 681.042969 143.53125 L 681.042969 137.292969 L 682.113281 137.292969 L 682.113281 131.058594 L 683.179688 131.058594 L 683.179688 124.824219 L 684.25 124.824219 L 684.25 117.550781 L 685.316406 117.550781 L 685.316406 111.316406 L 686.382812 111.316406 L 686.382812 104.042969 L 687.453125 104.042969 L 687.453125 97.808594 L 688.519531 97.808594 L 688.519531 92.609375 L 689.585938 92.609375 L 689.585938 91.570312 L 729.097656 91.570312 L 729.097656 97.808594 L 728.027344 97.808594 L 728.027344 103.003906 L 726.960938 103.003906 L 726.960938 109.238281 L 725.890625 109.238281 L 725.890625 115.472656 L 724.824219 115.472656 L 724.824219 121.707031 L 723.757812 121.707031 L 723.757812 127.941406 L 722.6875 127.941406 L 722.6875 134.175781 L 721.621094 134.175781 L 721.621094 140.414062 L 720.554688 140.414062 L 720.554688 145.609375 L 719.484375 145.609375 L 719.484375 150.804688 L 718.417969 150.804688 L 718.417969 157.039062 L 717.351562 157.039062 L 717.351562 163.273438 L 716.28125 163.273438 L 716.28125 169.507812 L 715.214844 169.507812 L 715.214844 175.742188 L 714.148438 175.742188 L 714.148438 181.980469 L 713.078125 181.980469 L 713.078125 187.175781 L 712.011719 187.175781 L 712.011719 193.410156 L 710.941406 193.410156 L 710.941406 199.644531 L 709.875 199.644531 L 709.875 204.839844 L 708.808594 204.839844 L 708.808594 211.074219 L 707.738281 211.074219 L 707.738281 217.308594 L 706.671875 217.308594 L 706.671875 222.503906 L 705.605469 222.503906 L 705.605469 228.742188 L 704.535156 228.742188 L 704.535156 234.976562 L 703.46875 234.976562 L 703.46875 241.210938 L 702.402344 241.210938 L 702.402344 247.445312 L 701.332031 247.445312 L 701.332031 252.640625 L 700.265625 252.640625 L 700.265625 258.878906 L 699.199219 258.878906 L 699.199219 265.113281 L 698.128906 265.113281 L 698.128906 271.347656 L 697.0625 271.347656 L 697.0625 277.582031 L 695.992188 277.582031 L 695.992188 282.777344 L 694.925781 282.777344 L 694.925781 289.011719 L 693.859375 289.011719 L 693.859375 294.207031 L 692.789062 294.207031 L 692.789062 300.441406 L 691.722656 300.441406 L 691.722656 306.679688 L 690.65625 306.679688 L 690.65625 311.875 L 689.585938 311.875 L 689.585938 318.109375 L 688.519531 318.109375 L 688.519531 325.382812 L 687.453125 325.382812 L 687.453125 330.578125 L 686.382812 330.578125 L 686.382812 333.695312 L 630.859375 333.695312 L 630.859375 331.617188 L 629.789062 331.617188 L 629.789062 325.382812 L 628.722656 325.382812 L 628.722656 319.148438 L 627.65625 319.148438 L 627.65625 312.914062 L 626.585938 312.914062 L 626.585938 306.679688 L 625.519531 306.679688 L 625.519531 301.484375 L 624.453125 301.484375 L 624.453125 295.246094 L 623.382812 295.246094 L 623.382812 290.050781 L 622.316406 290.050781 L 622.316406 283.816406 L 621.25 283.816406 L 621.25 277.582031 L 620.179688 277.582031 L 620.179688 271.347656 L 619.113281 271.347656 L 619.113281 265.113281 L 618.042969 265.113281 L 618.042969 258.878906 L 616.976562 258.878906 L 616.976562 253.679688 L 615.910156 253.679688 L 615.910156 247.445312 L 614.839844 247.445312 L 614.839844 241.210938 L 613.773438 241.210938 L 613.773438 236.015625 L 612.707031 236.015625 L 612.707031 230.820312 L 611.636719 230.820312 L 611.636719 224.585938 L 610.570312 224.585938 L 610.570312 218.351562 L 609.503906 218.351562 L 609.503906 213.152344 L 608.433594 213.152344 L 608.433594 206.917969 L 607.367188 206.917969 L 607.367188 200.683594 L 606.300781 200.683594 L 606.300781 194.449219 L 605.230469 194.449219 L 605.230469 189.253906 L 604.164062 189.253906 L 604.164062 184.058594 L 603.097656 184.058594 L 603.097656 178.859375 L 602.027344 178.859375 L 602.027344 173.664062 L 600.960938 173.664062 L 600.960938 168.46875 L 599.890625 168.46875 L 599.890625 163.273438 L 598.824219 163.273438 L 598.824219 158.078125 L 597.757812 158.078125 L 597.757812 151.84375 L 596.6875 151.84375 L 596.6875 146.648438 L 595.621094 146.648438 L 595.621094 140.414062 L 594.554688 140.414062 L 594.554688 134.175781 L 593.484375 134.175781 L 593.484375 128.980469 L 592.417969 128.980469 L 592.417969 123.785156 L 591.351562 123.785156 L 591.351562 118.589844 L 590.28125 118.589844 L 590.28125 112.355469 L 589.214844 112.355469 L 589.214844 107.160156 L 588.148438 107.160156 L 588.148438 101.960938 L 587.078125 101.960938 L 587.078125 95.726562 L 586.011719 95.726562 Z M 586.011719 91.570312 " fill-opacity="0.976" fill-rule="nonzero"/><path fill="#e9e7e8" d="M 754.722656 91.570312 L 830.535156 91.570312 L 830.535156 92.609375 L 838.011719 92.609375 L 838.011719 93.648438 L 841.214844 93.648438 L 841.214844 94.6875 L 845.484375 94.6875 L 845.484375 95.726562 L 847.621094 95.726562 L 847.621094 96.765625 L 850.824219 96.765625 L 850.824219 97.808594 C 851.09375 97.808594 851.714844 97.808594 852.695312 97.808594 L 852.960938 97.808594 L 852.960938 98.84375 L 855.09375 98.84375 L 855.09375 99.882812 L 856.164062 99.882812 L 856.164062 100.925781 L 857.230469 100.925781 L 857.230469 101.960938 L 859.367188 101.960938 L 859.367188 103.003906 L 860.433594 103.003906 L 860.433594 104.042969 L 861.503906 104.042969 L 861.503906 105.082031 L 862.570312 105.082031 L 862.570312 106.121094 L 863.636719 106.121094 L 863.636719 107.160156 L 864.707031 107.160156 L 864.707031 108.199219 L 865.773438 108.199219 L 865.773438 109.238281 L 866.839844 109.238281 L 866.839844 110.277344 L 867.910156 110.277344 L 867.910156 112.355469 L 868.976562 112.355469 L 868.976562 113.394531 L 870.042969 113.394531 L 870.042969 115.472656 L 871.113281 115.472656 L 871.113281 117.550781 L 872.179688 117.550781 L 872.179688 120.667969 L 873.25 120.667969 L 873.25 123.785156 L 874.316406 123.785156 L 874.316406 127.941406 L 875.382812 127.941406 L 875.382812 135.21875 L 876.453125 135.21875 L 876.453125 181.980469 L 875.382812 181.980469 L 875.382812 188.214844 L 874.316406 188.214844 L 874.316406 192.371094 L 873.25 192.371094 L 873.25 195.488281 L 872.179688 195.488281 C 872.179688 195.746094 872.179688 196.351562 872.179688 197.304688 L 872.179688 197.566406 L 871.113281 197.566406 L 871.113281 199.644531 L 870.042969 199.644531 L 870.042969 200.683594 L 868.976562 200.683594 L 868.976562 202.761719 L 867.910156 202.761719 L 867.910156 203.800781 L 866.839844 203.800781 L 866.839844 204.839844 L 865.773438 204.839844 L 865.773438 206.917969 L 864.707031 206.917969 L 864.707031 207.957031 L 863.636719 207.957031 L 863.636719 208.996094 L 862.570312 208.996094 L 862.570312 210.035156 L 861.503906 210.035156 L 861.503906 211.074219 L 860.433594 211.074219 L 860.433594 212.113281 L 858.300781 212.113281 L 858.300781 213.152344 L 857.230469 213.152344 L 857.230469 214.191406 C 856.964844 214.191406 856.34375 214.191406 855.363281 214.191406 L 855.09375 214.191406 L 855.09375 215.230469 L 852.960938 215.230469 L 852.960938 216.269531 L 851.890625 216.269531 L 851.890625 217.308594 L 852.960938 217.308594 L 852.960938 218.351562 L 855.09375 218.351562 L 855.09375 219.386719 L 857.230469 219.386719 L 857.230469 220.425781 L 858.300781 220.425781 L 858.300781 221.46875 L 860.433594 221.46875 L 860.433594 222.503906 L 861.503906 222.503906 L 861.503906 223.546875 L 862.570312 223.546875 L 862.570312 224.585938 L 863.636719 224.585938 L 863.636719 225.621094 L 864.707031 225.621094 L 864.707031 226.664062 L 865.773438 226.664062 L 865.773438 227.703125 L 866.839844 227.703125 L 866.839844 229.78125 L 867.910156 229.78125 L 867.910156 230.820312 L 868.976562 230.820312 L 868.976562 231.859375 L 870.042969 231.859375 L 870.042969 233.9375 L 871.113281 233.9375 L 871.113281 236.015625 L 872.179688 236.015625 L 872.179688 239.132812 L 873.25 239.132812 L 873.25 242.25 L 874.316406 242.25 L 874.316406 246.40625 L 875.382812 246.40625 L 875.382812 254.71875 L 876.453125 254.71875 L 876.453125 310.835938 L 877.519531 310.835938 L 877.519531 318.109375 L 878.585938 318.109375 L 878.585938 322.265625 L 879.65625 322.265625 L 879.65625 326.421875 L 880.722656 326.421875 L 880.722656 329.539062 L 881.789062 329.539062 L 881.789062 333.695312 L 839.078125 333.695312 L 839.078125 331.617188 L 838.011719 331.617188 L 838.011719 327.460938 L 836.941406 327.460938 L 836.941406 321.226562 L 835.875 321.226562 L 835.875 310.835938 L 834.808594 310.835938 L 834.808594 252.640625 L 833.738281 252.640625 L 833.738281 249.523438 L 832.671875 249.523438 L 832.671875 246.40625 L 831.605469 246.40625 L 831.605469 244.328125 L 830.535156 244.328125 L 830.535156 243.289062 L 829.46875 243.289062 L 829.46875 242.25 L 828.402344 242.25 L 828.402344 241.210938 L 827.332031 241.210938 L 827.332031 240.171875 L 826.265625 240.171875 L 826.265625 239.132812 L 824.128906 239.132812 L 824.128906 238.09375 L 821.992188 238.09375 L 821.992188 237.054688 L 817.722656 237.054688 L 817.722656 236.015625 L 796.367188 236.015625 L 796.367188 237.054688 L 795.300781 237.054688 L 795.300781 333.695312 L 753.65625 333.695312 L 753.65625 92.609375 L 754.722656 92.609375 Z M 796.367188 128.980469 L 796.367188 130.019531 L 795.300781 130.019531 L 795.300781 199.644531 L 820.925781 199.644531 L 820.925781 198.605469 L 824.128906 198.605469 L 824.128906 197.566406 L 826.265625 197.566406 L 826.265625 196.527344 L 826.800781 196.527344 C 827.511719 196.527344 828.042969 196.527344 828.402344 196.527344 L 828.402344 195.488281 L 829.46875 195.488281 L 829.46875 194.449219 L 830.535156 194.449219 L 830.535156 192.371094 L 831.605469 192.371094 L 831.605469 191.332031 L 832.671875 191.332031 L 832.671875 188.214844 L 833.738281 188.214844 L 833.738281 185.097656 L 834.808594 185.097656 L 834.808594 142.488281 L 833.738281 142.488281 L 833.738281 138.335938 L 832.671875 138.335938 L 832.671875 136.253906 L 831.605469 136.253906 L 831.605469 135.21875 L 830.535156 135.21875 L 830.535156 133.136719 L 829.46875 133.136719 L 829.46875 132.097656 L 827.332031 132.097656 L 827.332031 131.058594 L 826.265625 131.058594 L 826.265625 130.019531 L 821.992188 130.019531 L 821.992188 128.980469 Z M 796.367188 128.980469 " fill-opacity="0.976" fill-rule="nonzero"/><path fill="#e9e7e8" d="M 909.554688 91.570312 L 984.300781 91.570312 L 984.300781 92.609375 L 991.773438 92.609375 L 991.773438 93.648438 L 994.976562 93.648438 L 994.976562 94.6875 L 999.25 94.6875 L 999.25 95.726562 L 1002.453125 95.726562 L 1002.453125 96.765625 L 1004.585938 96.765625 L 1004.585938 97.808594 C 1004.855469 97.808594 1005.476562 97.808594 1006.457031 97.808594 L 1006.722656 97.808594 L 1006.722656 98.84375 L 1008.859375 98.84375 L 1008.859375 99.882812 L 1009.925781 99.882812 L 1009.925781 100.925781 L 1012.0625 100.925781 L 1012.0625 101.960938 L 1013.128906 101.960938 L 1013.128906 103.003906 L 1014.199219 103.003906 L 1014.199219 104.042969 L 1015.265625 104.042969 L 1015.265625 105.082031 L 1016.332031 105.082031 L 1016.332031 106.121094 L 1017.402344 106.121094 L 1017.402344 107.160156 L 1018.46875 107.160156 L 1018.46875 108.199219 L 1019.535156 108.199219 L 1019.535156 109.238281 L 1020.605469 109.238281 L 1020.605469 111.316406 L 1021.671875 111.316406 L 1021.671875 112.355469 L 1022.738281 112.355469 L 1022.738281 114.433594 L 1023.808594 114.433594 L 1023.808594 115.472656 L 1024.875 115.472656 L 1024.875 117.550781 L 1025.941406 117.550781 L 1025.941406 120.667969 L 1027.011719 120.667969 L 1027.011719 123.785156 L 1028.078125 123.785156 L 1028.078125 126.902344 L 1029.144531 126.902344 L 1029.144531 133.136719 L 1030.214844 133.136719 L 1030.214844 184.058594 L 1029.144531 184.058594 L 1029.144531 189.253906 L 1028.078125 189.253906 L 1028.078125 192.371094 L 1027.011719 192.371094 L 1027.011719 195.488281 L 1025.941406 195.488281 C 1025.941406 195.746094 1025.941406 196.351562 1025.941406 197.304688 L 1025.941406 197.566406 L 1024.875 197.566406 L 1024.875 199.644531 L 1023.808594 199.644531 L 1023.808594 200.683594 L 1022.738281 200.683594 L 1022.738281 202.761719 L 1021.671875 202.761719 L 1021.671875 203.800781 L 1020.605469 203.800781 L 1020.605469 205.878906 L 1019.535156 205.878906 L 1019.535156 206.917969 L 1018.46875 206.917969 L 1018.46875 207.957031 L 1017.402344 207.957031 L 1017.402344 208.996094 L 1016.332031 208.996094 L 1016.332031 210.035156 L 1015.265625 210.035156 L 1015.265625 211.074219 L 1014.199219 211.074219 L 1014.199219 212.113281 L 1012.0625 212.113281 L 1012.0625 213.152344 L 1010.992188 213.152344 L 1010.992188 214.191406 C 1010.726562 214.191406 1010.105469 214.191406 1009.125 214.191406 L 1008.859375 214.191406 L 1008.859375 215.230469 L 1006.722656 215.230469 L 1006.722656 216.269531 L 1005.65625 216.269531 L 1005.65625 217.308594 C 1005.921875 217.308594 1006.546875 217.308594 1007.523438 217.308594 L 1007.789062 217.308594 L 1007.789062 218.351562 L 1009.925781 218.351562 L 1009.925781 219.386719 L 1010.992188 219.386719 L 1010.992188 220.425781 L 1013.128906 220.425781 L 1013.128906 221.46875 L 1014.199219 221.46875 L 1014.199219 222.503906 L 1016.332031 222.503906 L 1016.332031 223.546875 L 1017.402344 223.546875 L 1017.402344 224.585938 L 1018.46875 224.585938 L 1018.46875 225.621094 L 1019.535156 225.621094 L 1019.535156 226.664062 L 1020.605469 226.664062 L 1020.605469 228.742188 L 1021.671875 228.742188 L 1021.671875 229.78125 L 1022.738281 229.78125 L 1022.738281 231.859375 L 1023.808594 231.859375 L 1023.808594 232.898438 L 1024.875 232.898438 L 1024.875 234.976562 L 1025.941406 234.976562 L 1025.941406 237.054688 L 1027.011719 237.054688 L 1027.011719 240.171875 L 1028.078125 240.171875 L 1028.078125 244.328125 L 1029.144531 244.328125 L 1029.144531 249.523438 L 1030.214844 249.523438 L 1030.214844 307.71875 L 1031.28125 307.71875 L 1031.28125 318.109375 L 1032.351562 318.109375 L 1032.351562 323.304688 L 1033.417969 323.304688 L 1033.417969 327.460938 L 1034.484375 327.460938 L 1034.484375 330.578125 L 1035.554688 330.578125 L 1035.554688 333.695312 L 992.839844 333.695312 L 992.839844 331.617188 L 991.773438 331.617188 L 991.773438 328.5 L 990.707031 328.5 L 990.707031 323.304688 L 989.636719 323.304688 L 989.636719 313.953125 L 988.570312 313.953125 L 988.570312 252.640625 L 987.503906 252.640625 L 987.503906 248.484375 L 986.433594 248.484375 C 986.433594 248.226562 986.433594 247.621094 986.433594 246.667969 L 986.433594 246.40625 L 985.367188 246.40625 L 985.367188 244.328125 L 984.300781 244.328125 L 984.300781 243.289062 L 983.230469 243.289062 L 983.230469 242.25 L 982.164062 242.25 L 982.164062 241.210938 L 981.09375 241.210938 L 981.09375 240.171875 L 980.027344 240.171875 L 980.027344 239.132812 L 977.890625 239.132812 L 977.890625 238.09375 L 975.757812 238.09375 L 975.757812 237.054688 L 971.484375 237.054688 L 971.484375 236.015625 L 951.199219 236.015625 L 951.199219 333.695312 L 909.554688 333.695312 Z M 951.199219 128.980469 L 951.199219 199.644531 L 975.757812 199.644531 L 975.757812 198.605469 L 978.960938 198.605469 L 978.960938 197.566406 L 980.027344 197.566406 L 980.027344 196.527344 L 982.164062 196.527344 L 982.164062 195.488281 L 983.230469 195.488281 L 983.230469 194.449219 L 984.300781 194.449219 L 984.300781 192.371094 L 985.367188 192.371094 L 985.367188 191.332031 L 986.433594 191.332031 L 986.433594 188.214844 L 987.503906 188.214844 L 987.503906 185.097656 L 988.570312 185.097656 L 988.570312 141.453125 L 987.503906 141.453125 L 987.503906 138.335938 L 986.433594 138.335938 L 986.433594 136.253906 L 985.367188 136.253906 L 985.367188 135.21875 L 984.300781 135.21875 L 984.300781 134.175781 L 983.230469 134.175781 L 983.230469 133.136719 L 982.164062 133.136719 L 982.164062 132.097656 L 981.09375 132.097656 L 981.09375 131.058594 L 978.960938 131.058594 L 978.960938 130.019531 L 975.757812 130.019531 L 975.757812 128.980469 Z M 951.199219 128.980469 " fill-opacity="0.976" fill-rule="nonzero"/><g clip-path="url(#c8d5d94a06)"><g clip-path="url(#c00663eb7e)"><path fill="url(#e94774b14c)" d="M 1077.324219 370.585938 L 1139.660156 310.722656 L 1078.132812 250.046875 L 1015.796875 309.910156 Z M 1077.324219 370.585938 " fill-rule="nonzero"/></g></g></svg>